<?xml version="1.0" encoding="UTF-8" standalone="no"?>
<!-- Generator: Adobe Illustrator 16.0.0, SVG Export Plug-In . SVG Version: 6.00 Build 0)  -->

<svg
   xmlns:dc="http://purl.org/dc/elements/1.1/"
   xmlns:cc="http://creativecommons.org/ns#"
   xmlns:rdf="http://www.w3.org/1999/02/22-rdf-syntax-ns#"
   xmlns:svg="http://www.w3.org/2000/svg"
   xmlns="http://www.w3.org/2000/svg"
   xmlns:sodipodi="http://sodipodi.sourceforge.net/DTD/sodipodi-0.dtd"
   xmlns:inkscape="http://www.inkscape.org/namespaces/inkscape"
   version="1.1"
   id="Capa_1"
   x="0px"
   y="0px"
   width="438.529px"
   height="438.528px"
   viewBox="0 0 438.529 438.528"
   style="enable-background:new 0 0 438.529 438.528;"
   xml:space="preserve"
   inkscape:version="0.91 r13725"
   sodipodi:docname="activity.svg"
   inkscape:export-filename="C:\Data\Projects\TimeCult\TimeCult\main\resources\net\sf\timecult\images\icons\activity-24.png"
   inkscape:export-xdpi="4.9299998"
   inkscape:export-ydpi="4.9299998"><metadata
     id="metadata45"><rdf:RDF><cc:Work
         rdf:about=""><dc:format>image/svg+xml</dc:format><dc:type
           rdf:resource="http://purl.org/dc/dcmitype/StillImage" /></cc:Work></rdf:RDF></metadata><defs
     id="defs43" /><sodipodi:namedview
     pagecolor="#ffffff"
     bordercolor="#666666"
     borderopacity="1"
     objecttolerance="10"
     gridtolerance="10"
     guidetolerance="10"
     inkscape:pageopacity="0"
     inkscape:pageshadow="2"
     inkscape:window-width="1280"
     inkscape:window-height="666"
     id="namedview41"
     showgrid="false"
     inkscape:zoom="0.26908202"
     inkscape:cx="-581.60507"
     inkscape:cy="219.26401"
     inkscape:window-x="-8"
     inkscape:window-y="-8"
     inkscape:window-maximized="1"
     inkscape:current-layer="Capa_1" /><g
     id="g3"
     style="fill:#ff6600"
     transform="matrix(0.79661063,0,0,0.80508207,40,45.433263)"><g
       id="g5"
       style="fill:#ff6600"><path
         d="m 433.109,23.694 c -3.614,-3.612 -7.898,-5.424 -12.848,-5.424 -4.948,0 -9.226,1.812 -12.847,5.424 L 370.301,60.529 C 349.936,41.303 326.617,26.406 300.353,15.845 274.091,5.283 247.056,0.003 219.266,0.003 166.922,0.003 121.244,15.846 82.224,47.539 43.203,79.228 17.509,120.574 5.137,171.587 l 0,1.997 c 0,2.474 0.903,4.617 2.712,6.423 1.809,1.809 3.949,2.712 6.423,2.712 l 56.814,0 c 4.189,0 7.042,-2.19 8.566,-6.565 7.993,-19.032 13.035,-30.166 15.131,-33.403 13.322,-21.698 31.023,-38.734 53.103,-51.106 22.082,-12.371 45.873,-18.559 71.376,-18.559 38.261,0 71.473,13.039 99.645,39.115 l -39.406,39.397 c -3.607,3.617 -5.421,7.902 -5.421,12.851 0,4.948 1.813,9.231 5.421,12.847 3.621,3.617 7.905,5.424 12.854,5.424 l 127.906,0 c 4.949,0 9.233,-1.807 12.848,-5.424 3.613,-3.616 5.42,-7.898 5.42,-12.847 l 0,-127.907 c 0,-4.949 -1.796,-9.23 -5.42,-12.848 z"
         id="path7"
         style="fill:#ff6600"
         inkscape:connector-curvature="0" /><path
         d="m 422.253,255.813 -54.816,0 c -4.188,0 -7.043,2.187 -8.562,6.566 -7.99,19.034 -13.038,30.163 -15.129,33.4 -13.326,21.693 -31.028,38.735 -53.102,51.106 -22.083,12.375 -45.874,18.556 -71.378,18.556 -18.461,0 -36.259,-3.423 -53.387,-10.273 -17.13,-6.858 -32.454,-16.567 -45.966,-29.13 l 39.115,-39.112 c 3.615,-3.613 5.424,-7.901 5.424,-12.847 0,-4.948 -1.809,-9.236 -5.424,-12.847 -3.617,-3.62 -7.898,-5.431 -12.847,-5.431 l -127.907,0 c -4.952,0 -9.235,1.811 -12.851,5.431 C 1.807,264.844 0,269.132 0,274.08 l 0,127.907 c 0,4.945 1.807,9.232 5.424,12.847 3.619,3.61 7.902,5.428 12.851,5.428 4.948,0 9.229,-1.817 12.847,-5.428 l 36.829,-36.833 c 20.367,19.41 43.542,34.355 69.523,44.823 25.981,10.472 52.866,15.701 80.653,15.701 52.155,0 97.643,-15.845 136.471,-47.534 38.828,-31.688 64.333,-73.042 76.52,-124.05 0.191,-0.38 0.281,-1.047 0.281,-1.995 0,-2.478 -0.907,-4.612 -2.715,-6.427 -1.81,-1.799 -3.953,-2.706 -6.431,-2.706 z"
         id="path9"
         style="fill:#ff6600"
         inkscape:connector-curvature="0" /></g></g><g
     id="g11" /><g
     id="g13" /><g
     id="g15" /><g
     id="g17" /><g
     id="g19" /><g
     id="g21" /><g
     id="g23" /><g
     id="g25" /><g
     id="g27" /><g
     id="g29" /><g
     id="g31" /><g
     id="g33" /><g
     id="g35" /><g
     id="g37" /><g
     id="g39" /></svg>