<?xml version="1.0" encoding="UTF-8" standalone="no"?>
<!-- Generator: Adobe Illustrator 19.0.0, SVG Export Plug-In . SVG Version: 6.00 Build 0)  -->

<svg
   xmlns:dc="http://purl.org/dc/elements/1.1/"
   xmlns:cc="http://creativecommons.org/ns#"
   xmlns:rdf="http://www.w3.org/1999/02/22-rdf-syntax-ns#"
   xmlns:svg="http://www.w3.org/2000/svg"
   xmlns="http://www.w3.org/2000/svg"
   xmlns:sodipodi="http://sodipodi.sourceforge.net/DTD/sodipodi-0.dtd"
   xmlns:inkscape="http://www.inkscape.org/namespaces/inkscape"
   version="1.1"
   id="Layer_1"
   x="0px"
   y="0px"
   viewBox="0 0 286.054 286.054"
   style="enable-background:new 0 0 286.054 286.054;"
   xml:space="preserve"
   inkscape:version="0.91 r13725"
   sodipodi:docname="add.svg"
   inkscape:export-filename="C:\Data\add-24.png"
   inkscape:export-xdpi="7.5510221"
   inkscape:export-ydpi="7.5510221"><metadata
     id="metadata41"><rdf:RDF><cc:Work
         rdf:about=""><dc:format>image/svg+xml</dc:format><dc:type
           rdf:resource="http://purl.org/dc/dcmitype/StillImage" /></cc:Work></rdf:RDF></metadata><defs
     id="defs39" /><sodipodi:namedview
     pagecolor="#ffffff"
     bordercolor="#666666"
     borderopacity="1"
     objecttolerance="10"
     gridtolerance="10"
     guidetolerance="10"
     inkscape:pageopacity="0"
     inkscape:pageshadow="2"
     inkscape:window-width="1280"
     inkscape:window-height="666"
     id="namedview37"
     showgrid="false"
     inkscape:zoom="0.82501909"
     inkscape:cx="143.02699"
     inkscape:cy="143.02699"
     inkscape:window-x="-8"
     inkscape:window-y="-8"
     inkscape:window-maximized="1"
     inkscape:current-layer="Layer_1" /><g
     id="g3"><path
       style="fill:#3DB39E;"
       d="M143.027,0C64.031,0,0,64.04,0,143.027c0,78.996,64.031,143.027,143.027,143.027   c78.987,0,143.027-64.031,143.027-143.027C286.045,64.04,222.014,0,143.027,0z M143.027,259.236   c-64.183,0-116.209-52.026-116.209-116.209s52.026-116.2,116.209-116.2c64.174,0,116.209,52.017,116.209,116.2   S207.201,259.236,143.027,259.236z M196.832,125.149h-35.936V89.392c0-4.934-4.005-8.939-8.939-8.939h-17.878   c-4.943,0-8.939,4.005-8.939,8.939v35.757H89.401c-4.952,0-8.957,4.005-8.957,8.939v17.878c0,4.943,4.005,8.939,8.957,8.939h35.748   v35.676c0,4.934,3.996,8.93,8.939,8.93h17.878c4.934,0,8.939-3.996,8.939-8.93v-35.676h35.936c4.952,0,8.957-3.996,8.957-8.939   v-17.878C205.789,129.162,201.775,125.149,196.832,125.149z"
       id="path5" /></g><g
     id="g7" /><g
     id="g9" /><g
     id="g11" /><g
     id="g13" /><g
     id="g15" /><g
     id="g17" /><g
     id="g19" /><g
     id="g21" /><g
     id="g23" /><g
     id="g25" /><g
     id="g27" /><g
     id="g29" /><g
     id="g31" /><g
     id="g33" /><g
     id="g35" /></svg>