<?xml version="1.0" encoding="UTF-8" standalone="no"?>
<!-- Generator: Adobe Illustrator 18.1.1, SVG Export Plug-In . SVG Version: 6.00 Build 0)  -->

<svg
   xmlns:dc="http://purl.org/dc/elements/1.1/"
   xmlns:cc="http://creativecommons.org/ns#"
   xmlns:rdf="http://www.w3.org/1999/02/22-rdf-syntax-ns#"
   xmlns:svg="http://www.w3.org/2000/svg"
   xmlns="http://www.w3.org/2000/svg"
   xmlns:sodipodi="http://sodipodi.sourceforge.net/DTD/sodipodi-0.dtd"
   xmlns:inkscape="http://www.inkscape.org/namespaces/inkscape"
   version="1.1"
   id="Capa_1"
   x="0px"
   y="0px"
   viewBox="0 0 23.331 23.331"
   style="enable-background:new 0 0 23.331 23.331;"
   xml:space="preserve"
   inkscape:version="0.91 r13725"
   sodipodi:docname="cancel.svg"
   inkscape:export-filename="C:\Data\cancel-16.png"
   inkscape:export-xdpi="61.720459"
   inkscape:export-ydpi="61.720459"><metadata
     id="metadata41"><rdf:RDF><cc:Work
         rdf:about=""><dc:format>image/svg+xml</dc:format><dc:type
           rdf:resource="http://purl.org/dc/dcmitype/StillImage" /></cc:Work></rdf:RDF></metadata><defs
     id="defs39" /><sodipodi:namedview
     pagecolor="#ffffff"
     bordercolor="#666666"
     borderopacity="1"
     objecttolerance="10"
     gridtolerance="10"
     guidetolerance="10"
     inkscape:pageopacity="0"
     inkscape:pageshadow="2"
     inkscape:window-width="1280"
     inkscape:window-height="666"
     id="namedview37"
     showgrid="false"
     inkscape:zoom="10.115298"
     inkscape:cx="11.6655"
     inkscape:cy="11.6655"
     inkscape:window-x="-8"
     inkscape:window-y="-8"
     inkscape:window-maximized="1"
     inkscape:current-layer="Capa_1" /><g
     id="g3"
     style="fill:#ff2a2a"
     transform="matrix(0.847456,0,0,0.82203581,2.0000763,2)"><path
       style="fill:#ff2a2a"
       d="M 16.043,11.667 22.609,5.1 c 0.963,-0.963 0.963,-2.539 0,-3.502 L 21.734,0.723 c -0.963,-0.964 -2.539,-0.964 -3.502,0 L 11.666,7.29 5.099,0.723 C 4.137,-0.24 2.561,-0.24 1.598,0.723 L 0.722,1.598 c -0.962,0.963 -0.962,2.539 0,3.502 l 6.566,6.566 -6.566,6.567 c -0.962,0.963 -0.962,2.539 0,3.501 l 0.876,0.875 c 0.963,0.963 2.539,0.963 3.501,0 l 6.567,-6.565 6.566,6.565 c 0.963,0.963 2.539,0.963 3.502,0 l 0.875,-0.875 c 0.963,-0.963 0.963,-2.539 0,-3.501 l -6.566,-6.566 z"
       id="path5"
       inkscape:connector-curvature="0" /></g><g
     id="g7" /><g
     id="g9" /><g
     id="g11" /><g
     id="g13" /><g
     id="g15" /><g
     id="g17" /><g
     id="g19" /><g
     id="g21" /><g
     id="g23" /><g
     id="g25" /><g
     id="g27" /><g
     id="g29" /><g
     id="g31" /><g
     id="g33" /><g
     id="g35" /></svg>