<?xml version="1.0" encoding="UTF-8" standalone="no"?>
<!-- Generator: Adobe Illustrator 19.0.0, SVG Export Plug-In . SVG Version: 6.00 Build 0)  -->

<svg
   xmlns:dc="http://purl.org/dc/elements/1.1/"
   xmlns:cc="http://creativecommons.org/ns#"
   xmlns:rdf="http://www.w3.org/1999/02/22-rdf-syntax-ns#"
   xmlns:svg="http://www.w3.org/2000/svg"
   xmlns="http://www.w3.org/2000/svg"
   xmlns:sodipodi="http://sodipodi.sourceforge.net/DTD/sodipodi-0.dtd"
   xmlns:inkscape="http://www.inkscape.org/namespaces/inkscape"
   version="1.1"
   id="Layer_1"
   x="0px"
   y="0px"
   viewBox="0 0 501.551 501.551"
   style="enable-background:new 0 0 501.551 501.551;"
   xml:space="preserve"
   inkscape:version="0.91 r13725"
   sodipodi:docname="edit.svg"
   inkscape:export-filename="C:\Data\edit-24.png"
   inkscape:export-xdpi="4.3099999"
   inkscape:export-ydpi="4.3099999"><metadata
     id="metadata53"><rdf:RDF><cc:Work
         rdf:about=""><dc:format>image/svg+xml</dc:format><dc:type
           rdf:resource="http://purl.org/dc/dcmitype/StillImage" /></cc:Work></rdf:RDF></metadata><defs
     id="defs51" /><sodipodi:namedview
     pagecolor="#ffffff"
     bordercolor="#666666"
     borderopacity="1"
     objecttolerance="10"
     gridtolerance="10"
     guidetolerance="10"
     inkscape:pageopacity="0"
     inkscape:pageshadow="2"
     inkscape:window-width="1280"
     inkscape:window-height="666"
     id="namedview49"
     showgrid="false"
     inkscape:zoom="0.47054039"
     inkscape:cx="250.7755"
     inkscape:cy="250.7755"
     inkscape:window-x="-8"
     inkscape:window-y="-8"
     inkscape:window-maximized="1"
     inkscape:current-layer="Layer_1" /><g
     id="g4181"
     transform="matrix(0.80084751,0,0,0.80932213,51.005186,42.504274)"><polygon
       id="polygon3"
       points="78.367,485.878 0,501.551 15.673,423.184 39.706,303.02 129.567,213.159 288.392,371.984 198.531,461.845 "
       style="fill:#ffd15c" /><polygon
       id="polygon5"
       points="133.747,288.392 333.322,88.816 412.735,168.229 213.159,367.804 119.118,382.433 "
       style="fill:#ff7058" /><g
       id="g7"><polygon
         id="polygon9"
         points="213.159,367.804 412.735,168.229 452.441,207.935 198.531,461.845 "
         style="fill:#f1543f" /><polygon
         id="polygon11"
         points="39.706,303.02 293.616,49.11 333.322,88.816 133.747,288.392 "
         style="fill:#f1543f" /></g><polygon
       id="polygon13"
       points="15.673,423.184 78.367,485.878 0,501.551 "
       style="fill:#334a5e" /><path
       id="path15"
       d="M 495.282,135.837 365.714,6.269 c -8.359,-8.359 -20.898,-8.359 -29.257,0 L 293.616,49.11 452.44,207.934 495.281,165.093 c 8.36,-8.358 8.36,-20.897 10e-4,-29.256 z"
       style="fill:#40596b"
       inkscape:connector-curvature="0" /><rect
       id="rect17"
       height="224.651"
       width="21.943001"
       style="fill:#f2f2f2"
       transform="matrix(-0.7071,0.7071,-0.7071,-0.7071,735.3167,-62.8052)"
       y="8.5609999"
       x="369.694" /><g
       id="g19" /><g
       id="g21" /><g
       id="g23" /><g
       id="g25" /><g
       id="g27" /><g
       id="g29" /><g
       id="g31" /><g
       id="g33" /><g
       id="g35" /><g
       id="g37" /><g
       id="g39" /><g
       id="g41" /><g
       id="g43" /><g
       id="g45" /><g
       id="g47" /></g></svg>