<?xml version="1.0" encoding="UTF-8" standalone="no"?>
<!-- Generator: Adobe Illustrator 16.0.0, SVG Export Plug-In . SVG Version: 6.00 Build 0)  -->

<svg
   xmlns:dc="http://purl.org/dc/elements/1.1/"
   xmlns:cc="http://creativecommons.org/ns#"
   xmlns:rdf="http://www.w3.org/1999/02/22-rdf-syntax-ns#"
   xmlns:svg="http://www.w3.org/2000/svg"
   xmlns="http://www.w3.org/2000/svg"
   xmlns:sodipodi="http://sodipodi.sourceforge.net/DTD/sodipodi-0.dtd"
   xmlns:inkscape="http://www.inkscape.org/namespaces/inkscape"
   version="1.1"
   id="Capa_1"
   x="0px"
   y="0px"
   width="512px"
   height="512px"
   viewBox="0 0 430.602 430.602"
   style="enable-background:new 0 0 430.602 430.602;"
   xml:space="preserve"
   inkscape:version="0.91 r13725"
   sodipodi:docname="idle.svg"
   inkscape:export-filename="C:\Data\Projects\TimeCult\TimeCult\main\resources\net\sf\timecult\images\icons\idle-16.png"
   inkscape:export-xdpi="2.8099999"
   inkscape:export-ydpi="2.8099999"><metadata
     id="metadata41"><rdf:RDF><cc:Work
         rdf:about=""><dc:format>image/svg+xml</dc:format><dc:type
           rdf:resource="http://purl.org/dc/dcmitype/StillImage" /></cc:Work></rdf:RDF></metadata><defs
     id="defs39" /><sodipodi:namedview
     pagecolor="#ffffff"
     bordercolor="#666666"
     borderopacity="1"
     objecttolerance="10"
     gridtolerance="10"
     guidetolerance="10"
     inkscape:pageopacity="0"
     inkscape:pageshadow="2"
     inkscape:window-width="751"
     inkscape:window-height="480"
     id="namedview37"
     showgrid="false"
     inkscape:zoom="0.32593203"
     inkscape:cx="256"
     inkscape:cy="256"
     inkscape:window-x="0"
     inkscape:window-y="0"
     inkscape:window-maximized="0"
     inkscape:current-layer="Capa_1" /><g
     id="g3"
     transform="matrix(0.59534969,0,0,0.59813297,85.128283,71.957062)"><path
       d="m 215.301,60 c 41.482,0 80.481,16.154 109.814,45.486 29.332,29.332 45.485,68.332 45.485,109.814 0,41.481 -16.153,80.481 -45.485,109.813 -29.333,29.332 -68.332,45.486 -109.814,45.486 -41.482,0 -80.481,-16.154 -109.814,-45.486 C 76.155,295.781 60.001,256.781 60.001,215.3 c 0,-41.482 16.154,-80.482 45.486,-109.814 C 134.82,76.155 173.819,60 215.301,60 m 0,-60 C 96.394,0 0,96.394 0,215.301 c 0,118.907 96.394,215.301 215.301,215.301 118.907,0 215.301,-96.394 215.301,-215.301 C 430.602,96.394 334.208,0 215.301,0 l 0,0 z"
       id="path5"
       inkscape:connector-curvature="0"
       style="fill:#388bc7" /></g><g
     id="g7" /><g
     id="g9" /><g
     id="g11" /><g
     id="g13" /><g
     id="g15" /><g
     id="g17" /><g
     id="g19" /><g
     id="g21" /><g
     id="g23" /><g
     id="g25" /><g
     id="g27" /><g
     id="g29" /><g
     id="g31" /><g
     id="g33" /><g
     id="g35" /></svg>