<?xml version="1.0" encoding="UTF-8" standalone="no"?>
<!-- Generator: Adobe Illustrator 19.0.0, SVG Export Plug-In . SVG Version: 6.00 Build 0)  -->

<svg
   xmlns:dc="http://purl.org/dc/elements/1.1/"
   xmlns:cc="http://creativecommons.org/ns#"
   xmlns:rdf="http://www.w3.org/1999/02/22-rdf-syntax-ns#"
   xmlns:svg="http://www.w3.org/2000/svg"
   xmlns="http://www.w3.org/2000/svg"
   xmlns:sodipodi="http://sodipodi.sourceforge.net/DTD/sodipodi-0.dtd"
   xmlns:inkscape="http://www.inkscape.org/namespaces/inkscape"
   version="1.1"
   id="Layer_1"
   x="0px"
   y="0px"
   viewBox="0 0 512 512"
   style="enable-background:new 0 0 512 512;"
   xml:space="preserve"
   inkscape:version="0.91 r13725"
   sodipodi:docname="join.svg"
   inkscape:export-filename="C:\Data\join-24.png"
   inkscape:export-xdpi="4.21875"
   inkscape:export-ydpi="4.21875"><metadata
     id="metadata39"><rdf:RDF><cc:Work
         rdf:about=""><dc:format>image/svg+xml</dc:format><dc:type
           rdf:resource="http://purl.org/dc/dcmitype/StillImage" /></cc:Work></rdf:RDF></metadata><defs
     id="defs37" /><sodipodi:namedview
     pagecolor="#ffffff"
     bordercolor="#666666"
     borderopacity="1"
     objecttolerance="10"
     gridtolerance="10"
     guidetolerance="10"
     inkscape:pageopacity="0"
     inkscape:pageshadow="2"
     inkscape:window-width="1280"
     inkscape:window-height="666"
     id="namedview35"
     showgrid="false"
     inkscape:zoom="0.4609375"
     inkscape:cx="256"
     inkscape:cy="256"
     inkscape:window-x="-8"
     inkscape:window-y="-8"
     inkscape:window-maximized="1"
     inkscape:current-layer="Layer_1" /><path
     style="fill:#50C8EF;"
     d="M416.911,370.056c-7.37-17.784-18.01-33.705-31.626-47.324l-68.516-68.511  c-5.494-5.494-9.789-11.919-12.764-19.121c-2.972-7.171-4.483-14.751-4.483-22.52v-86.085h82.97L256.003,0l-126.49,126.495h82.97  v86.085c0,7.775-1.505,15.36-4.47,22.52c-2.98,7.191-7.281,13.619-12.769,19.116l-68.526,68.521  c-13.619,13.624-24.261,29.555-31.616,47.314c-7.38,17.8-11.121,36.59-11.121,55.859V512h87.04v-86.09  c0-7.77,1.51-15.34,4.495-22.541c2.964-7.176,7.26-13.601,12.749-19.09l67.738-67.732l67.732,67.727  c5.494,5.494,9.795,11.93,12.764,19.09c2.975,7.191,4.48,14.774,4.48,22.546V512h87.04v-86.09  C428.022,406.661,424.292,387.881,416.911,370.056z"
     id="path3" /><g
     id="g5" /><g
     id="g7" /><g
     id="g9" /><g
     id="g11" /><g
     id="g13" /><g
     id="g15" /><g
     id="g17" /><g
     id="g19" /><g
     id="g21" /><g
     id="g23" /><g
     id="g25" /><g
     id="g27" /><g
     id="g29" /><g
     id="g31" /><g
     id="g33" /></svg>