<?xml version="1.0" encoding="UTF-8" standalone="no"?>
<!-- Generator: Adobe Illustrator 18.1.1, SVG Export Plug-In . SVG Version: 6.00 Build 0)  -->

<svg
   xmlns:dc="http://purl.org/dc/elements/1.1/"
   xmlns:cc="http://creativecommons.org/ns#"
   xmlns:rdf="http://www.w3.org/1999/02/22-rdf-syntax-ns#"
   xmlns:svg="http://www.w3.org/2000/svg"
   xmlns="http://www.w3.org/2000/svg"
   xmlns:sodipodi="http://sodipodi.sourceforge.net/DTD/sodipodi-0.dtd"
   xmlns:inkscape="http://www.inkscape.org/namespaces/inkscape"
   version="1.1"
   id="Capa_1"
   x="0px"
   y="0px"
   viewBox="0 0 612 612"
   style="enable-background:new 0 0 612 612;"
   xml:space="preserve"
   inkscape:version="0.91 r13725"
   sodipodi:docname="measured_time.svg"
   inkscape:export-filename="C:\Data\Projects\TimeCult\TimeCult\main\resources\net\sf\timecult\images\icons\measured_time-16.png"
   inkscape:export-xdpi="2.3499999"
   inkscape:export-ydpi="2.3499999"><metadata
     id="metadata45"><rdf:RDF><cc:Work
         rdf:about=""><dc:format>image/svg+xml</dc:format><dc:type
           rdf:resource="http://purl.org/dc/dcmitype/StillImage" /></cc:Work></rdf:RDF></metadata><defs
     id="defs43" /><sodipodi:namedview
     pagecolor="#ffffff"
     bordercolor="#666666"
     borderopacity="1"
     objecttolerance="10"
     gridtolerance="10"
     guidetolerance="10"
     inkscape:pageopacity="0"
     inkscape:pageshadow="2"
     inkscape:window-width="1280"
     inkscape:window-height="666"
     id="namedview41"
     showgrid="false"
     inkscape:zoom="0.38562092"
     inkscape:cx="-160.77966"
     inkscape:cy="306"
     inkscape:window-x="-8"
     inkscape:window-y="-8"
     inkscape:window-maximized="1"
     inkscape:current-layer="Capa_1" /><g
     id="g3"
     style="fill:#89b4ba;fill-opacity:1"><g
       id="g5"
       style="fill:#89b4ba;fill-opacity:1"><path
         d="M306,87.735c-120.352,0-218.265,97.914-218.265,218.266S185.648,524.266,306,524.266s218.266-97.912,218.266-218.265    S426.352,87.735,306,87.735z M420.801,328.658H306c-12.513,0-22.658-10.145-22.658-22.656V166.306    c0-12.513,10.143-22.656,22.658-22.656c12.513,0,22.656,10.145,22.656,22.656v117.037h92.145    c12.513,0,22.658,10.145,22.658,22.658C443.457,318.513,433.315,328.658,420.801,328.658z"
         id="path7"
         style="fill:#89b4ba;fill-opacity:1" /><path
         d="M306,0C137.272,0,0,137.272,0,306.002C0,474.73,137.272,612,306,612s306-137.27,306-305.998C612,137.272,474.728,0,306,0z     M306,564.923C163.23,564.923,47.077,448.77,47.077,306C47.077,163.228,163.228,47.074,306,47.074    c142.77,0,258.923,116.154,258.923,258.926C564.923,448.77,448.77,564.923,306,564.923z"
         id="path9"
         style="fill:#89b4ba;fill-opacity:1" /></g></g><g
     id="g11" /><g
     id="g13" /><g
     id="g15" /><g
     id="g17" /><g
     id="g19" /><g
     id="g21" /><g
     id="g23" /><g
     id="g25" /><g
     id="g27" /><g
     id="g29" /><g
     id="g31" /><g
     id="g33" /><g
     id="g35" /><g
     id="g37" /><g
     id="g39" /></svg>