<?xml version="1.0" encoding="UTF-8" standalone="no"?>
<!-- Generator: Adobe Illustrator 18.1.1, SVG Export Plug-In . SVG Version: 6.00 Build 0)  -->

<svg
   xmlns:dc="http://purl.org/dc/elements/1.1/"
   xmlns:cc="http://creativecommons.org/ns#"
   xmlns:rdf="http://www.w3.org/1999/02/22-rdf-syntax-ns#"
   xmlns:svg="http://www.w3.org/2000/svg"
   xmlns="http://www.w3.org/2000/svg"
   xmlns:sodipodi="http://sodipodi.sourceforge.net/DTD/sodipodi-0.dtd"
   xmlns:inkscape="http://www.inkscape.org/namespaces/inkscape"
   version="1.1"
   id="Capa_1"
   x="0px"
   y="0px"
   viewBox="0 0 612 612"
   style="enable-background:new 0 0 612 612;"
   xml:space="preserve"
   inkscape:version="0.91 r13725"
   sodipodi:docname="measured_time_part.svg"
   inkscape:export-filename="C:\Data\Projects\TimeCult\TimeCult\main\resources\net\sf\timecult\images\icons\measured_time_part-14.png"
   inkscape:export-xdpi="3.53"
   inkscape:export-ydpi="3.53"><metadata
     id="metadata45"><rdf:RDF><cc:Work
         rdf:about=""><dc:format>image/svg+xml</dc:format><dc:type
           rdf:resource="http://purl.org/dc/dcmitype/StillImage" /><dc:title></dc:title></cc:Work></rdf:RDF></metadata><defs
     id="defs43" /><sodipodi:namedview
     pagecolor="#ffffff"
     bordercolor="#666666"
     borderopacity="1"
     objecttolerance="10"
     gridtolerance="10"
     guidetolerance="10"
     inkscape:pageopacity="0"
     inkscape:pageshadow="2"
     inkscape:window-width="1280"
     inkscape:window-height="666"
     id="namedview41"
     showgrid="false"
     inkscape:zoom="0.13633758"
     inkscape:cx="306"
     inkscape:cy="306"
     inkscape:window-x="-8"
     inkscape:window-y="-8"
     inkscape:window-maximized="1"
     inkscape:current-layer="Capa_1" /><path
     style="fill:#89b4ba;fill-opacity:1"
     d="M 306 87.734375 C 185.648 87.734375 87.734375 185.64995 87.734375 306.00195 C 87.734375 344.84629 97.946698 381.34482 115.80859 412.97656 L 288.64062 320.55664 C 285.33502 316.61926 283.3418 311.54416 283.3418 306.00195 L 283.3418 166.30664 C 283.3418 153.79364 293.485 143.65039 306 143.65039 C 318.513 143.65039 328.65625 153.79564 328.65625 166.30664 L 328.65625 283.34375 L 358.23242 283.34375 L 500.59766 207.21484 C 464.48768 136.36963 390.81927 87.734375 306 87.734375 z "
     id="path7" /><path
     style="fill:#89b4ba;fill-opacity:1"
     d="M 306 0 C 137.272 0 0 137.27195 0 306.00195 C 0 362.07548 15.17545 414.66512 41.613281 459.90625 L 82.90625 437.27148 C 60.156402 398.75602 47.076172 353.87963 47.076172 306 C 47.076172 163.228 163.228 47.074219 306 47.074219 C 406.5084 47.074219 493.82209 104.64221 536.70898 188.53516 L 577.99414 165.90625 C 527.07869 67.453516 424.27207 2.6563419e-014 306 0 z "
     id="path9" /><g
     id="g11" /><g
     id="g13" /><g
     id="g15" /><g
     id="g17" /><g
     id="g19" /><g
     id="g21" /><g
     id="g23" /><g
     id="g25" /><g
     id="g27" /><g
     id="g29" /><g
     id="g31" /><g
     id="g33" /><g
     id="g35" /><g
     id="g37" /><g
     id="g39" /></svg>