<?xml version="1.0" encoding="UTF-8" standalone="no"?>
<!-- Generator: Adobe Illustrator 19.0.0, SVG Export Plug-In . SVG Version: 6.00 Build 0)  -->

<svg
   xmlns:dc="http://purl.org/dc/elements/1.1/"
   xmlns:cc="http://creativecommons.org/ns#"
   xmlns:rdf="http://www.w3.org/1999/02/22-rdf-syntax-ns#"
   xmlns:svg="http://www.w3.org/2000/svg"
   xmlns="http://www.w3.org/2000/svg"
   xmlns:sodipodi="http://sodipodi.sourceforge.net/DTD/sodipodi-0.dtd"
   xmlns:inkscape="http://www.inkscape.org/namespaces/inkscape"
   version="1.1"
   id="Layer_1"
   x="0px"
   y="0px"
   viewBox="0 0 512 512"
   style="enable-background:new 0 0 512 512;"
   xml:space="preserve"
   inkscape:version="0.91 r13725"
   sodipodi:docname="paste.svg"
   inkscape:export-filename="C:\Data\paste-24.png"
   inkscape:export-xdpi="4.2199998"
   inkscape:export-ydpi="4.2199998"><metadata
     id="metadata55"><rdf:RDF><cc:Work
         rdf:about=""><dc:format>image/svg+xml</dc:format><dc:type
           rdf:resource="http://purl.org/dc/dcmitype/StillImage" /></cc:Work></rdf:RDF></metadata><defs
     id="defs53" /><sodipodi:namedview
     pagecolor="#ffffff"
     bordercolor="#666666"
     borderopacity="1"
     objecttolerance="10"
     gridtolerance="10"
     guidetolerance="10"
     inkscape:pageopacity="0"
     inkscape:pageshadow="2"
     inkscape:window-width="1280"
     inkscape:window-height="666"
     id="namedview51"
     showgrid="false"
     inkscape:zoom="0.4609375"
     inkscape:cx="256"
     inkscape:cy="256"
     inkscape:window-x="-8"
     inkscape:window-y="-8"
     inkscape:window-maximized="1"
     inkscape:current-layer="Layer_1" /><path
     style="fill:#FFFFFF;"
     d="M289.62,124.276c0.659,0.074,1.317,0.169,1.967,0.299c0.208,0.042,0.41,0.098,0.614,0.146  c0.455,0.104,0.905,0.217,1.351,0.348c0.276,0.081,0.549,0.168,0.819,0.259c0.396,0.132,0.785,0.276,1.173,0.428  c0.24,0.095,0.486,0.185,0.725,0.289c0.583,0.253,1.159,0.528,1.722,0.829c0.174,0.095,0.343,0.2,0.515,0.298  c0.42,0.24,0.839,0.49,1.247,0.759c0.199,0.13,0.391,0.262,0.583,0.399c0.389,0.272,0.77,0.557,1.142,0.853  c0.163,0.13,0.33,0.256,0.49,0.389c0.509,0.428,1.005,0.874,1.482,1.348c0.009,0.006,0.017,0.014,0.025,0.022l37.843,37.843V62.061  h-47.898c-3.199,9.033-11.792,15.515-21.92,15.515H147.38c-10.128,0-18.721-6.482-21.92-15.515h-47.9v341.333h46.545v-256  c0-12.853,10.42-23.273,23.273-23.273h139.636c0.118,0,0.233,0.016,0.352,0.019c0.548,0.008,1.092,0.036,1.637,0.082  C289.209,124.239,289.415,124.253,289.62,124.276z"
     id="path3" /><path
     style="fill:#A78966;"
     d="M246.874,31.03H271.5c6.886,0,13.051,3.007,17.312,7.758c3.694,4.119,5.961,9.546,5.961,15.515  c0,2.724-0.492,5.328-1.353,7.758h47.898v106.724l23.273,23.271l23.273,23.273V38.788c0-12.853-10.42-23.273-23.273-23.273H246.874  c0.861,2.43,1.353,5.033,1.353,7.758S247.735,28.601,246.874,31.03z"
     id="path5" /><path
     style="fill:#806749;"
     d="M124.106,403.394H77.56V62.061h47.898c-0.861-2.43-1.353-5.033-1.353-7.758  c0-5.969,2.267-11.396,5.961-15.515c4.26-4.751,10.428-7.758,17.312-7.758h24.626c-0.861-2.43-1.353-5.033-1.353-7.758  s0.492-5.328,1.353-7.758H54.288c-12.853,0-23.273,10.42-23.273,23.273v387.879c0,12.853,10.42,23.273,23.273,23.273h69.818v-23.273  L124.106,403.394L124.106,403.394z"
     id="path7" /><path
     style="fill:#E0E0E2;"
     d="M147.378,512h310.303c12.853,0,23.273-10.42,23.273-23.273V318.661  c-0.321,12.572-10.591,22.672-23.242,22.672c-0.011,0-0.023,0-0.031,0h-23.273H287.015c-12.674,0-22.962-10.138-23.245-22.744  c-0.005-0.177-0.028-0.351-0.028-0.529V170.667v-23.273c0-9.413,5.669-17.9,14.367-21.501c2.994-1.24,6.142-1.801,9.258-1.753  c-0.118-0.003-0.234-0.019-0.352-0.019H147.378c-12.853,0-23.273,10.42-23.273,23.273v256v23.273v23.273v38.788  C124.106,501.58,134.526,512,147.378,512z"
     id="path9" /><path
     style="fill:#D6D5D8;"
     d="M303.472,130.939l0.005,0.003c-0.008-0.006-0.016-0.014-0.025-0.022  C303.458,130.926,303.466,130.932,303.472,130.939z"
     id="path11" /><path
     style="fill:#FFB655;"
     d="M172.004,31.03h-24.626c-6.886,0-13.051,3.007-17.312,7.758c-3.694,4.119-5.961,9.546-5.961,15.515  c0,2.724,0.492,5.328,1.353,7.758c3.199,9.033,11.792,15.515,21.92,15.515H271.5c10.128,0,18.721-6.482,21.92-15.515  c0.861-2.43,1.353-5.033,1.353-7.758c0-5.969-2.267-11.396-5.961-15.515c-4.26-4.751-10.428-7.758-17.312-7.758h-24.626  c0.861-2.43,1.353-5.033,1.353-7.758s-0.492-5.328-1.353-7.758C243.675,6.482,235.082,0,224.954,0h-31.03  c-10.128,0-18.721,6.482-21.92,15.515c-0.861,2.43-1.353,5.033-1.353,7.758S171.145,28.601,172.004,31.03z"
     id="path13" /><path
     style="fill:#C6C5CA;"
     d="M341.318,168.785l-37.841-37.843l-0.005-0.003c-0.006-0.006-0.014-0.011-0.02-0.017  c-0.476-0.476-0.973-0.92-1.482-1.348c-0.161-0.133-0.327-0.259-0.49-0.389c-0.372-0.296-0.753-0.583-1.142-0.853  c-0.192-0.135-0.385-0.268-0.583-0.399c-0.408-0.267-0.825-0.518-1.247-0.759c-0.172-0.098-0.341-0.203-0.515-0.298  c-0.563-0.301-1.139-0.576-1.722-0.829c-0.237-0.104-0.484-0.192-0.725-0.289c-0.388-0.154-0.777-0.298-1.173-0.428  c-0.272-0.09-0.543-0.178-0.819-0.259c-0.447-0.13-0.897-0.244-1.351-0.348c-0.205-0.047-0.406-0.104-0.614-0.146  c-0.65-0.13-1.308-0.227-1.967-0.299c-0.205-0.023-0.411-0.036-0.616-0.054c-0.545-0.047-1.089-0.073-1.637-0.082  c-3.115-0.048-6.263,0.514-9.258,1.753c-8.696,3.603-14.367,12.088-14.367,21.501v23.273v147.394c0,0.178,0.023,0.352,0.028,0.529  c0.282,12.605,10.57,22.742,23.245,22.742h147.394h23.273c0.008,0,0.02,0,0.031,0c12.651,0,22.921-10.1,23.242-22.672  c0.006-0.202,0.031-0.397,0.031-0.6c0-5.598-1.997-10.716-5.291-14.732c-0.031-0.037-0.059-0.074-0.09-0.112  c-0.431-0.52-0.887-1.018-1.362-1.499c-0.064-0.064-0.124-0.129-0.189-0.192c-0.208-0.205-0.4-0.427-0.614-0.624l-85.574-85.574  l-23.273-23.273L341.318,168.785z"
     id="path15" /><path
     style="fill:#A9A8AE;"
     d="M289.62,124.276c0.659,0.074,1.317,0.169,1.967,0.299c0.208,0.042,0.41,0.098,0.614,0.146  c0.455,0.104,0.905,0.217,1.351,0.348c0.276,0.081,0.549,0.168,0.819,0.259c0.396,0.132,0.785,0.276,1.173,0.428  c0.24,0.095,0.486,0.185,0.725,0.289c0.583,0.253,1.159,0.528,1.722,0.829c0.174,0.095,0.343,0.2,0.515,0.298  c0.42,0.24,0.839,0.49,1.247,0.759c0.199,0.13,0.391,0.262,0.583,0.399c0.389,0.272,0.77,0.557,1.142,0.853  c0.163,0.13,0.33,0.256,0.49,0.389c0.509,0.428,1.005,0.874,1.482,1.348c0.009,0.006,0.017,0.014,0.025,0.022l37.843,37.843V62.061  h-47.898c-3.199,9.033-11.792,15.515-21.92,15.515H147.38c-10.128,0-18.721-6.482-21.92-15.515h-47.9v341.333h46.545v-256  c0-12.853,10.42-23.273,23.273-23.273h139.636c0.118,0,0.233,0.016,0.352,0.019c0.548,0.008,1.092,0.036,1.637,0.082  C289.209,124.239,289.415,124.253,289.62,124.276z"
     id="path17" /><path
     style="fill:#EE8700;"
     d="M193.924,0c-10.128,0-18.721,6.482-21.92,15.515c-0.861,2.43-1.353,5.033-1.353,7.758  s0.492,5.328,1.353,7.758h-24.626c-6.886,0-13.051,3.007-17.312,7.758c-3.694,4.119-5.961,9.546-5.961,15.515  c0,2.724,0.492,5.328,1.353,7.758c3.199,9.033,11.792,15.515,21.92,15.515h62.076V0H193.924z"
     id="path19" /><g
     id="g21" /><g
     id="g23" /><g
     id="g25" /><g
     id="g27" /><g
     id="g29" /><g
     id="g31" /><g
     id="g33" /><g
     id="g35" /><g
     id="g37" /><g
     id="g39" /><g
     id="g41" /><g
     id="g43" /><g
     id="g45" /><g
     id="g47" /><g
     id="g49" /></svg>