<?xml version="1.0" encoding="UTF-8" standalone="no"?>
<!-- Generator: Adobe Illustrator 19.0.0, SVG Export Plug-In . SVG Version: 6.00 Build 0)  -->

<svg
   xmlns:dc="http://purl.org/dc/elements/1.1/"
   xmlns:cc="http://creativecommons.org/ns#"
   xmlns:rdf="http://www.w3.org/1999/02/22-rdf-syntax-ns#"
   xmlns:svg="http://www.w3.org/2000/svg"
   xmlns="http://www.w3.org/2000/svg"
   xmlns:sodipodi="http://sodipodi.sourceforge.net/DTD/sodipodi-0.dtd"
   xmlns:inkscape="http://www.inkscape.org/namespaces/inkscape"
   version="1.1"
   id="Layer_1"
   x="0px"
   y="0px"
   viewBox="0 0 511 511"
   style="enable-background:new 0 0 511 511;"
   xml:space="preserve"
   inkscape:version="0.91 r13725"
   sodipodi:docname="pdf.svg"
   inkscape:export-filename="C:\Data\pdf-16.png"
   inkscape:export-xdpi="2.8199999"
   inkscape:export-ydpi="2.8199999"><metadata
     id="metadata55"><rdf:RDF><cc:Work
         rdf:about=""><dc:format>image/svg+xml</dc:format><dc:type
           rdf:resource="http://purl.org/dc/dcmitype/StillImage" /></cc:Work></rdf:RDF></metadata><defs
     id="defs53" /><sodipodi:namedview
     pagecolor="#ffffff"
     bordercolor="#666666"
     borderopacity="1"
     objecttolerance="10"
     gridtolerance="10"
     guidetolerance="10"
     inkscape:pageopacity="0"
     inkscape:pageshadow="2"
     inkscape:window-width="1280"
     inkscape:window-height="666"
     id="namedview51"
     showgrid="false"
     inkscape:zoom="0.46183953"
     inkscape:cx="255.5"
     inkscape:cy="255.5"
     inkscape:window-x="-8"
     inkscape:window-y="-8"
     inkscape:window-maximized="1"
     inkscape:current-layer="Layer_1" /><path
     style="fill:#E24C3F;"
     d="M511,431c0,44.183-35.817,80-80,80H80c-44.183,0-80-35.817-80-80V104L104,0h327  c44.183,0,80,35.817,80,80V431z"
     id="path3" /><polygon
     style="opacity:0.2;fill:#5D5D5D;enable-background:new    ;"
     points="0,159.733 0,104 55.467,104 "
     id="polygon5" /><path
     style="fill:#FF7063;"
     d="M0,104h69.334C88.4,104,104,88.666,104,69.6V0L0,104z"
     id="path7" /><path
     style="fill:#FF7063;"
     d="M85.652,343.717V176.396h82.818c7.861,0,14.844,1.286,20.945,3.852  c6.098,2.569,11.154,6.14,15.168,10.714c4.01,4.574,7.061,10.032,9.148,16.371c2.084,6.342,3.129,13.361,3.129,21.065  s-1.004,14.927-3.01,21.667c-2.008,6.741-4.977,12.561-8.906,17.455c-3.936,4.897-8.949,8.75-15.047,11.556  c-6.102,2.811-13.242,4.213-21.428,4.213h-55.613v60.429H85.652V343.717z M112.857,201.434v56.335h46.225  c10.592,0,18.334-2.366,23.232-7.102c4.893-4.732,7.342-12.158,7.342-22.27c0-9.63-2.609-16.529-7.824-20.705  c-5.217-4.171-12.801-6.259-22.75-6.259h-46.225V201.434z"
     id="path9" /><path
     style="fill:#FF7063;"
     d="M314.846,180.729l26.242-7.223V316.03c0,3.051,0.156,5.778,0.48,8.186  c0.32,2.407,0.723,4.657,1.203,6.741c0.641,1.926,1.363,3.973,2.168,6.139c0.801,2.167,1.842,4.375,3.129,6.621h-27.686  c-0.963-1.603-1.926-3.77-2.889-6.5c-0.645-2.89-1.125-5.455-1.445-7.704c-4.814,4.814-10.314,8.87-16.492,12.158  c-6.18,3.287-12.801,4.935-19.861,4.935c-8.348,0-15.689-1.365-22.029-4.093c-6.342-2.727-11.676-6.5-16.01-11.314  c-4.332-4.815-7.582-10.552-9.75-17.214c-2.166-6.658-3.25-13.844-3.25-21.548v-11.556c0-20.381,5.375-35.71,16.131-45.983  c10.75-10.27,26.4-15.408,46.945-15.408c7.863,0,15.566,1.527,23.113,4.574L314.846,180.729L314.846,180.729z M314.846,248.38  c-3.533-2.084-7.584-3.528-12.158-4.334c-4.574-0.801-8.871-1.203-12.881-1.203c-6.42,0-11.838,0.884-16.25,2.647  c-4.416,1.769-8.027,4.255-10.834,7.464c-2.811,3.212-4.814,7.064-6.02,11.556c-1.203,4.495-1.805,9.39-1.805,14.686v8.908  c0,4.495,0.32,8.87,0.963,13.121c0.639,4.254,1.885,7.986,3.732,11.194c1.842,3.213,4.371,5.819,7.582,7.824  c3.209,2.009,7.381,3.01,12.52,3.01c3.371,0,6.699-0.561,9.992-1.686c3.287-1.121,6.459-2.606,9.51-4.453  c3.047-1.844,5.898-3.89,8.545-6.14c2.648-2.246,5.016-4.574,7.104-6.981L314.846,248.38L314.846,248.38z"
     id="path11" /><path
     style="fill:#FF7063;"
     d="M374.549,208.896c0-4.491,0.602-8.866,1.807-13.121c1.203-4.25,3.088-8.023,5.656-11.315  c2.566-3.287,5.938-5.936,10.111-7.944c4.172-2.005,9.148-3.01,14.928-3.01c2.727,0,5.814,0.282,9.268,0.843  c3.451,0.564,6.459,1.245,9.029,2.047V197.1h-9.631c-4.977,0-8.707,1.365-11.193,4.093c-2.49,2.731-3.732,6.5-3.732,11.315v9.871  h23.354l-6.982,21.667h-16.371v99.671h-26.242v-99.671h-15.166v-21.667h15.166v-13.483H374.549z"
     id="path13" /><path
     style="fill:#FFFFFF;"
     d="M85.652,337.717V170.396h82.818c7.861,0,14.844,1.286,20.945,3.852  c6.098,2.569,11.154,6.14,15.168,10.714c4.01,4.574,7.061,10.032,9.148,16.371c2.084,6.342,3.129,13.361,3.129,21.065  s-1.004,14.927-3.01,21.667c-2.008,6.741-4.977,12.561-8.906,17.455c-3.936,4.897-8.949,8.75-15.047,11.556  c-6.102,2.811-13.242,4.213-21.428,4.213h-55.613v60.429H85.652V337.717z M112.857,195.434v56.335h46.225  c10.592,0,18.334-2.366,23.232-7.102c4.893-4.732,7.342-12.158,7.342-22.27c0-9.63-2.609-16.529-7.824-20.705  c-5.217-4.171-12.801-6.259-22.75-6.259h-46.225V195.434z"
     id="path15" /><path
     style="fill:#FFFFFF;"
     d="M314.846,174.729l26.242-7.223V310.03c0,3.051,0.156,5.778,0.48,8.186  c0.32,2.407,0.723,4.657,1.203,6.741c0.641,1.926,1.363,3.973,2.168,6.139c0.801,2.167,1.842,4.375,3.129,6.621h-27.686  c-0.963-1.603-1.926-3.77-2.889-6.5c-0.645-2.89-1.125-5.455-1.445-7.704c-4.814,4.814-10.314,8.87-16.492,12.158  c-6.18,3.287-12.801,4.935-19.861,4.935c-8.348,0-15.689-1.365-22.029-4.093c-6.342-2.727-11.676-6.5-16.01-11.314  c-4.332-4.815-7.582-10.552-9.75-17.214c-2.166-6.658-3.25-13.844-3.25-21.548v-11.556c0-20.381,5.375-35.71,16.131-45.983  c10.75-10.27,26.4-15.408,46.945-15.408c7.863,0,15.566,1.527,23.113,4.574L314.846,174.729L314.846,174.729z M314.846,242.38  c-3.533-2.084-7.584-3.528-12.158-4.334c-4.574-0.801-8.871-1.203-12.881-1.203c-6.42,0-11.838,0.884-16.25,2.647  c-4.416,1.769-8.027,4.255-10.834,7.464c-2.811,3.212-4.814,7.064-6.02,11.556c-1.203,4.495-1.805,9.39-1.805,14.686v8.908  c0,4.495,0.32,8.87,0.963,13.121c0.639,4.254,1.885,7.986,3.732,11.194c1.842,3.213,4.371,5.819,7.582,7.824  c3.209,2.009,7.381,3.01,12.52,3.01c3.371,0,6.699-0.561,9.992-1.686c3.287-1.121,6.459-2.606,9.51-4.453  c3.047-1.844,5.898-3.89,8.545-6.14c2.648-2.246,5.016-4.574,7.104-6.981L314.846,242.38L314.846,242.38z"
     id="path17" /><path
     style="fill:#FFFFFF;"
     d="M374.549,202.896c0-4.491,0.602-8.866,1.807-13.121c1.203-4.25,3.088-8.023,5.656-11.315  c2.566-3.287,5.938-5.936,10.111-7.944c4.172-2.005,9.148-3.01,14.928-3.01c2.727,0,5.814,0.282,9.268,0.843  c3.451,0.564,6.459,1.245,9.029,2.047V191.1h-9.631c-4.977,0-8.707,1.365-11.193,4.093c-2.49,2.731-3.732,6.5-3.732,11.315v9.871  h23.354l-6.982,21.667h-16.371v99.671h-26.242v-99.671h-15.166v-21.667h15.166v-13.483H374.549z"
     id="path19" /><g
     id="g21" /><g
     id="g23" /><g
     id="g25" /><g
     id="g27" /><g
     id="g29" /><g
     id="g31" /><g
     id="g33" /><g
     id="g35" /><g
     id="g37" /><g
     id="g39" /><g
     id="g41" /><g
     id="g43" /><g
     id="g45" /><g
     id="g47" /><g
     id="g49" /></svg>