<?xml version="1.0" encoding="UTF-8" standalone="no"?>
<!-- Generator: Adobe Illustrator 16.0.0, SVG Export Plug-In . SVG Version: 6.00 Build 0)  -->

<svg
   xmlns:dc="http://purl.org/dc/elements/1.1/"
   xmlns:cc="http://creativecommons.org/ns#"
   xmlns:rdf="http://www.w3.org/1999/02/22-rdf-syntax-ns#"
   xmlns:svg="http://www.w3.org/2000/svg"
   xmlns="http://www.w3.org/2000/svg"
   xmlns:sodipodi="http://sodipodi.sourceforge.net/DTD/sodipodi-0.dtd"
   xmlns:inkscape="http://www.inkscape.org/namespaces/inkscape"
   version="1.1"
   id="Capa_1"
   x="0px"
   y="0px"
   width="361.77px"
   height="361.77px"
   viewBox="0 0 361.77 361.77"
   style="enable-background:new 0 0 361.77 361.77;"
   xml:space="preserve"
   inkscape:version="0.91 r13725"
   sodipodi:docname="project2.svg"
   inkscape:export-filename="C:\Data\project-24.png"
   inkscape:export-xdpi="5.9699998"
   inkscape:export-ydpi="5.9699998"><metadata
     id="metadata57"><rdf:RDF><cc:Work
         rdf:about=""><dc:format>image/svg+xml</dc:format><dc:type
           rdf:resource="http://purl.org/dc/dcmitype/StillImage" /></cc:Work></rdf:RDF></metadata><defs
     id="defs55" /><sodipodi:namedview
     pagecolor="#ffffff"
     bordercolor="#666666"
     borderopacity="1"
     objecttolerance="10"
     gridtolerance="10"
     guidetolerance="10"
     inkscape:pageopacity="0"
     inkscape:pageshadow="2"
     inkscape:window-width="1280"
     inkscape:window-height="666"
     id="namedview53"
     showgrid="false"
     inkscape:zoom="0.6523482"
     inkscape:cx="180.88499"
     inkscape:cy="180.88499"
     inkscape:window-x="-8"
     inkscape:window-y="-8"
     inkscape:window-maximized="1"
     inkscape:current-layer="Capa_1" /><g
     id="g3"
     style="fill:#6c5353"><g
       id="g5"
       style="fill:#6c5353"><g
         id="g7"
         style="fill:#6c5353"><path
           d="M323.885,43.77h-27.5V25c0-13.807-11.193-25-25-25h-1c-13.807,0-25,11.193-25,25v18.77h-129V25c0-13.807-11.193-25-25-25     h-1c-13.807,0-25,11.193-25,25v18.77h-27.5c-13.807,0-25,11.193-25,25v268c0,13.809,11.193,25,25,25h286     c13.807,0,25-11.191,25-25v-268C348.885,54.963,337.691,43.77,323.885,43.77z M306.885,322.27h-252v-203h252V322.27z"
           id="path9"
           style="fill:#6c5353" /><path
           d="M89.136,211.134h43.498c2.209,0,4-1.791,4-4v-43.498c0-2.209-1.791-4-4-4H89.136c-2.209,0-4,1.791-4,4v43.498     C85.136,209.343,86.927,211.134,89.136,211.134z"
           id="path11"
           style="fill:#6c5353" /><path
           d="M159.136,211.134h43.498c2.209,0,4-1.791,4-4v-43.498c0-2.209-1.791-4-4-4h-43.498c-2.209,0-4,1.791-4,4v43.498     C155.136,209.343,156.927,211.134,159.136,211.134z"
           id="path13"
           style="fill:#6c5353" /><path
           d="M229.136,211.134h43.498c2.209,0,4-1.791,4-4v-43.498c0-2.209-1.791-4-4-4h-43.498c-2.209,0-4,1.791-4,4v43.498     C225.136,209.343,226.927,211.134,229.136,211.134z"
           id="path15"
           style="fill:#6c5353" /><path
           d="M89.136,281.134h43.498c2.209,0,4-1.791,4-4v-43.498c0-2.209-1.791-4-4-4H89.136c-2.209,0-4,1.791-4,4v43.498     C85.136,279.343,86.927,281.134,89.136,281.134z"
           id="path17"
           style="fill:#6c5353" /><path
           d="M159.136,281.134h43.498c2.209,0,4-1.791,4-4v-43.498c0-2.209-1.791-4-4-4h-43.498c-2.209,0-4,1.791-4,4v43.498     C155.136,279.343,156.927,281.134,159.136,281.134z"
           id="path19"
           style="fill:#6c5353" /><path
           d="M229.136,281.134h43.498c2.209,0,4-1.791,4-4v-43.498c0-2.209-1.791-4-4-4h-43.498c-2.209,0-4,1.791-4,4v43.498     C225.136,279.343,226.927,281.134,229.136,281.134z"
           id="path21"
           style="fill:#6c5353" /></g></g></g><g
     id="g23" /><g
     id="g25" /><g
     id="g27" /><g
     id="g29" /><g
     id="g31" /><g
     id="g33" /><g
     id="g35" /><g
     id="g37" /><g
     id="g39" /><g
     id="g41" /><g
     id="g43" /><g
     id="g45" /><g
     id="g47" /><g
     id="g49" /><g
     id="g51" /></svg>