<?xml version="1.0" encoding="UTF-8" standalone="no"?>
<!-- Generator: Adobe Illustrator 16.0.0, SVG Export Plug-In . SVG Version: 6.00 Build 0)  -->

<svg
   xmlns:dc="http://purl.org/dc/elements/1.1/"
   xmlns:cc="http://creativecommons.org/ns#"
   xmlns:rdf="http://www.w3.org/1999/02/22-rdf-syntax-ns#"
   xmlns:svg="http://www.w3.org/2000/svg"
   xmlns="http://www.w3.org/2000/svg"
   xmlns:sodipodi="http://sodipodi.sourceforge.net/DTD/sodipodi-0.dtd"
   xmlns:inkscape="http://www.inkscape.org/namespaces/inkscape"
   version="1.1"
   id="Capa_1"
   x="0px"
   y="0px"
   width="361.77px"
   height="361.77px"
   viewBox="0 0 361.77 361.77"
   style="enable-background:new 0 0 361.77 361.77;"
   xml:space="preserve"
   inkscape:version="0.91 r"
   sodipodi:docname="project.svg"
   inkscape:export-filename="/home/rvishnyakov/My/Projects/TimeCult/main/resources/net/sf/timecult/images/icons/project-24.png"
   inkscape:export-xdpi="5.9706445"
   inkscape:export-ydpi="5.9706445"><metadata
     id="metadata57"><rdf:RDF><cc:Work
         rdf:about=""><dc:format>image/svg+xml</dc:format><dc:type
           rdf:resource="http://purl.org/dc/dcmitype/StillImage" /></cc:Work></rdf:RDF></metadata><defs
     id="defs55" /><sodipodi:namedview
     pagecolor="#ffffff"
     bordercolor="#666666"
     borderopacity="1"
     objecttolerance="10"
     gridtolerance="10"
     guidetolerance="10"
     inkscape:pageopacity="0"
     inkscape:pageshadow="2"
     inkscape:window-width="1920"
     inkscape:window-height="1025"
     id="namedview53"
     showgrid="false"
     inkscape:zoom="0.6523482"
     inkscape:cx="-143.32837"
     inkscape:cy="180.88499"
     inkscape:window-x="0"
     inkscape:window-y="25"
     inkscape:window-maximized="1"
     inkscape:current-layer="Capa_1" /><g
     id="g3"
     style="fill:#6c5353"
     transform="matrix(0.91787909,0,0,0.81355932,16.387365,33.724321)"><g
       id="g5"
       style="fill:#6c5353"><g
         id="g7"
         style="fill:#6c5353"><path
           d="m 323.885,43.77 -27.5,0 0,-18.77 c 0,-13.807 -11.193,-25 -25,-25 l -1,0 c -13.807,0 -25,11.193 -25,25 l 0,18.77 -129,0 0,-18.77 c 0,-13.807 -11.193,-25 -25,-25 l -1,0 c -13.807,0 -25,11.193 -25,25 l 0,18.77 -27.5,0 c -13.807,0 -25,11.193 -25,25 l 0,268 c 0,13.809 11.193,25 25,25 l 286,0 c 13.807,0 25,-11.191 25,-25 l 0,-268 c 0,-13.807 -11.194,-25 -25,-25 z m -17,278.5 -252,0 0,-203 252,0 0,203 z"
           id="path9"
           style="fill:#6c5353"
           inkscape:connector-curvature="0" /><path
           d="m 89.136,211.134 43.498,0 c 2.209,0 4,-1.791 4,-4 l 0,-43.498 c 0,-2.209 -1.791,-4 -4,-4 l -43.498,0 c -2.209,0 -4,1.791 -4,4 l 0,43.498 c 0,2.209 1.791,4 4,4 z"
           id="path11"
           style="fill:#6c5353"
           inkscape:connector-curvature="0" /><path
           d="m 159.136,211.134 43.498,0 c 2.209,0 4,-1.791 4,-4 l 0,-43.498 c 0,-2.209 -1.791,-4 -4,-4 l -43.498,0 c -2.209,0 -4,1.791 -4,4 l 0,43.498 c 0,2.209 1.791,4 4,4 z"
           id="path13"
           style="fill:#6c5353"
           inkscape:connector-curvature="0" /><path
           d="m 229.136,211.134 43.498,0 c 2.209,0 4,-1.791 4,-4 l 0,-43.498 c 0,-2.209 -1.791,-4 -4,-4 l -43.498,0 c -2.209,0 -4,1.791 -4,4 l 0,43.498 c 0,2.209 1.791,4 4,4 z"
           id="path15"
           style="fill:#6c5353"
           inkscape:connector-curvature="0" /><path
           d="m 89.136,281.134 43.498,0 c 2.209,0 4,-1.791 4,-4 l 0,-43.498 c 0,-2.209 -1.791,-4 -4,-4 l -43.498,0 c -2.209,0 -4,1.791 -4,4 l 0,43.498 c 0,2.209 1.791,4 4,4 z"
           id="path17"
           style="fill:#6c5353"
           inkscape:connector-curvature="0" /><path
           d="m 159.136,281.134 43.498,0 c 2.209,0 4,-1.791 4,-4 l 0,-43.498 c 0,-2.209 -1.791,-4 -4,-4 l -43.498,0 c -2.209,0 -4,1.791 -4,4 l 0,43.498 c 0,2.209 1.791,4 4,4 z"
           id="path19"
           style="fill:#6c5353"
           inkscape:connector-curvature="0" /><path
           d="m 229.136,281.134 43.498,0 c 2.209,0 4,-1.791 4,-4 l 0,-43.498 c 0,-2.209 -1.791,-4 -4,-4 l -43.498,0 c -2.209,0 -4,1.791 -4,4 l 0,43.498 c 0,2.209 1.791,4 4,4 z"
           id="path21"
           style="fill:#6c5353"
           inkscape:connector-curvature="0" /></g></g></g><g
     id="g23" /><g
     id="g25" /><g
     id="g27" /><g
     id="g29" /><g
     id="g31" /><g
     id="g33" /><g
     id="g35" /><g
     id="g37" /><g
     id="g39" /><g
     id="g41" /><g
     id="g43" /><g
     id="g45" /><g
     id="g47" /><g
     id="g49" /><g
     id="g51" /></svg>