<?xml version="1.0" encoding="UTF-8" standalone="no"?>
<!-- Generator: Adobe Illustrator 19.0.0, SVG Export Plug-In . SVG Version: 6.00 Build 0)  -->

<svg
   xmlns:dc="http://purl.org/dc/elements/1.1/"
   xmlns:cc="http://creativecommons.org/ns#"
   xmlns:rdf="http://www.w3.org/1999/02/22-rdf-syntax-ns#"
   xmlns:svg="http://www.w3.org/2000/svg"
   xmlns="http://www.w3.org/2000/svg"
   xmlns:sodipodi="http://sodipodi.sourceforge.net/DTD/sodipodi-0.dtd"
   xmlns:inkscape="http://www.inkscape.org/namespaces/inkscape"
   version="1.1"
   id="Layer_1"
   x="0px"
   y="0px"
   viewBox="0 0 501.551 501.551"
   style="enable-background:new 0 0 501.551 501.551;"
   xml:space="preserve"
   inkscape:version="0.91 r13725"
   sodipodi:docname="properties.svg"
   inkscape:export-filename="C:\Data\properties-24.png"
   inkscape:export-xdpi="4.3099999"
   inkscape:export-ydpi="4.3099999"><metadata
     id="metadata67"><rdf:RDF><cc:Work
         rdf:about=""><dc:format>image/svg+xml</dc:format><dc:type
           rdf:resource="http://purl.org/dc/dcmitype/StillImage" /></cc:Work></rdf:RDF></metadata><defs
     id="defs65" /><sodipodi:namedview
     pagecolor="#ffffff"
     bordercolor="#666666"
     borderopacity="1"
     objecttolerance="10"
     gridtolerance="10"
     guidetolerance="10"
     inkscape:pageopacity="0"
     inkscape:pageshadow="2"
     inkscape:window-width="1280"
     inkscape:window-height="666"
     id="namedview63"
     showgrid="false"
     inkscape:zoom="0.47054039"
     inkscape:cx="250.7755"
     inkscape:cy="250.7755"
     inkscape:window-x="-8"
     inkscape:window-y="-8"
     inkscape:window-maximized="1"
     inkscape:current-layer="Layer_1" /><path
     style="fill:#f2f2f2"
     d="m 387.12979,17.001729 -352.010068,0 c -11.191182,0 -20.347426,8.726593 -20.347426,19.392635 l 0,426.637056 c 0,10.66604 9.156244,19.39264 20.347426,19.39264 l 352.010068,0 c 11.19118,0 20.34743,-8.7266 20.34743,-19.39264 l 0,-426.637056 c 0,-10.666042 -9.15625,-19.392635 -20.34743,-19.392635 z"
     id="path3"
     inkscape:connector-curvature="0" /><g
     id="g5"><rect
       x="40.682"
       y="73.143"
       style="fill:#4CDBC4;"
       width="316.604"
       height="26.122"
       id="rect7" /><rect
       x="40.682"
       y="153.6"
       style="fill:#4CDBC4;"
       width="285.257"
       height="26.122"
       id="rect9" /><rect
       x="40.682"
       y="238.237"
       style="fill:#4CDBC4;"
       width="212.114"
       height="26.122"
       id="rect11" /><rect
       x="40.682"
       y="318.694"
       style="fill:#4CDBC4;"
       width="153.6"
       height="26.122"
       id="rect13" /><rect
       x="40.682"
       y="402.286"
       style="fill:#4CDBC4;"
       width="92.996"
       height="26.122"
       id="rect15" /></g><polygon
     style="fill:#FFD15C;"
     points="354.152,341.682 291.458,404.376 207.866,421.094 153.531,431.543 163.98,377.208   180.699,293.616 243.393,231.967 "
     id="polygon17" /><polygon
     style="fill:#FF7058;"
     points="301.907,338.547 236.078,348.996 246.527,283.167 384.454,145.241 439.833,200.62 "
     id="polygon19" /><g
     id="g21"><polygon
       style="fill:#F1543F;"
       points="468.046,227.788 291.458,404.376 301.907,338.547 439.833,200.62  "
       id="polygon23" /><polygon
       style="fill:#F1543F;"
       points="384.454,145.241 246.527,283.167 180.699,293.616 357.287,117.029  "
       id="polygon25" /></g><g
     id="g27"><polygon
       style="fill:#40596B;"
       points="207.866,421.094 153.531,431.543 163.98,377.208  "
       id="polygon29" /><path
       style="fill:#40596B;"
       d="M493.123,172.408l-80.457-80.457c-8.359-8.359-20.898-8.359-29.257,0l-25.078,25.078   l110.759,110.759l25.078-25.078C501.482,194.351,501.482,180.767,493.123,172.408z"
       id="path31" /></g><g
     id="g33" /><g
     id="g35" /><g
     id="g37" /><g
     id="g39" /><g
     id="g41" /><g
     id="g43" /><g
     id="g45" /><g
     id="g47" /><g
     id="g49" /><g
     id="g51" /><g
     id="g53" /><g
     id="g55" /><g
     id="g57" /><g
     id="g59" /><g
     id="g61" /></svg>