<?xml version="1.0" encoding="UTF-8" standalone="no"?>
<!-- Generator: Adobe Illustrator 19.0.0, SVG Export Plug-In . SVG Version: 6.00 Build 0)  -->

<svg
   xmlns:dc="http://purl.org/dc/elements/1.1/"
   xmlns:cc="http://creativecommons.org/ns#"
   xmlns:rdf="http://www.w3.org/1999/02/22-rdf-syntax-ns#"
   xmlns:svg="http://www.w3.org/2000/svg"
   xmlns="http://www.w3.org/2000/svg"
   xmlns:sodipodi="http://sodipodi.sourceforge.net/DTD/sodipodi-0.dtd"
   xmlns:inkscape="http://www.inkscape.org/namespaces/inkscape"
   version="1.1"
   id="Layer_1"
   x="0px"
   y="0px"
   viewBox="0 0 512 512"
   style="enable-background:new 0 0 512 512;"
   xml:space="preserve"
   inkscape:version="0.91 r13725"
   sodipodi:docname="quick-report.svg"
   inkscape:export-filename="C:\Data\quick-report-24.png"
   inkscape:export-xdpi="4.21875"
   inkscape:export-ydpi="4.21875"><metadata
     id="metadata81"><rdf:RDF><cc:Work
         rdf:about=""><dc:format>image/svg+xml</dc:format><dc:type
           rdf:resource="http://purl.org/dc/dcmitype/StillImage" /></cc:Work></rdf:RDF></metadata><defs
     id="defs79" /><sodipodi:namedview
     pagecolor="#ffffff"
     bordercolor="#666666"
     borderopacity="1"
     objecttolerance="10"
     gridtolerance="10"
     guidetolerance="10"
     inkscape:pageopacity="0"
     inkscape:pageshadow="2"
     inkscape:window-width="1280"
     inkscape:window-height="666"
     id="namedview77"
     showgrid="false"
     inkscape:zoom="0.32593203"
     inkscape:cx="256"
     inkscape:cy="256"
     inkscape:window-x="-8"
     inkscape:window-y="-8"
     inkscape:window-maximized="1"
     inkscape:current-layer="Layer_1" /><rect
     y="126.42966"
     style="fill:#e9c6af"
     width="512"
     height="341.35934"
     id="rect3"
     x="0" /><rect
     y="45.462997"
     style="fill:#ee3840"
     width="512"
     height="82.186996"
     id="rect5"
     x="0" /><g
     id="g7"
     style="fill:#241c1c"
     transform="translate(0,-60)"><path
       style="fill:#241c1c"
       d="m 104.93,260.763 -39.445,0 c -6.701,0 -12.133,-5.432 -12.133,-12.133 0,-6.701 5.432,-12.133 12.133,-12.133 l 39.445,0 c 6.701,0 12.133,5.432 12.133,12.133 0,6.701 -5.432,12.133 -12.133,12.133 z"
       id="path9"
       inkscape:connector-curvature="0" /><path
       style="fill:#241c1c"
       d="m 218.767,260.763 -39.445,0 c -6.701,0 -12.133,-5.432 -12.133,-12.133 0,-6.701 5.432,-12.133 12.133,-12.133 l 39.445,0 c 6.701,0 12.133,5.432 12.133,12.133 0,6.701 -5.432,12.133 -12.133,12.133 z"
       id="path11"
       inkscape:connector-curvature="0" /><path
       style="fill:#241c1c"
       d="m 332.606,260.763 -39.445,0 c -6.701,0 -12.133,-5.432 -12.133,-12.133 0,-6.701 5.432,-12.133 12.133,-12.133 l 39.445,0 c 6.701,0 12.133,5.432 12.133,12.133 0,6.701 -5.432,12.133 -12.133,12.133 z"
       id="path13"
       inkscape:connector-curvature="0" /></g><g
     id="g17"
     style="fill:#241c1c"
     transform="translate(0,-32)"><path
       style="fill:#241c1c"
       d="m 104.93,329.251 -39.445,0 c -6.701,0 -12.133,-5.432 -12.133,-12.133 0,-6.701 5.432,-12.133 12.133,-12.133 l 39.445,0 c 6.701,0 12.133,5.432 12.133,12.133 0,6.701 -5.432,12.133 -12.133,12.133 z"
       id="path19"
       inkscape:connector-curvature="0" /><path
       style="fill:#241c1c"
       d="m 218.767,329.251 -39.445,0 c -6.701,0 -12.133,-5.432 -12.133,-12.133 0,-6.701 5.432,-12.133 12.133,-12.133 l 39.445,0 c 6.701,0 12.133,5.432 12.133,12.133 0,6.701 -5.432,12.133 -12.133,12.133 z"
       id="path21"
       inkscape:connector-curvature="0" /><path
       style="fill:#241c1c"
       d="m 332.606,329.251 -39.445,0 c -6.701,0 -12.133,-5.432 -12.133,-12.133 0,-6.701 5.432,-12.133 12.133,-12.133 l 39.445,0 c 6.701,0 12.133,5.432 12.133,12.133 0,6.701 -5.432,12.133 -12.133,12.133 z"
       id="path23"
       inkscape:connector-curvature="0" /></g><g
     id="g27"
     style="fill:#2b1100"><path
       style="fill:#2b1100"
       d="M104.93,397.738H65.485c-6.701,0-12.133-5.432-12.133-12.133s5.432-12.133,12.133-12.133h39.445   c6.701,0,12.133,5.432,12.133,12.133S111.631,397.738,104.93,397.738z"
       id="path29" /><path
       style="fill:#2b1100"
       d="M218.767,397.738h-39.445c-6.701,0-12.133-5.432-12.133-12.133s5.432-12.133,12.133-12.133h39.445   c6.701,0,12.133,5.432,12.133,12.133S225.468,397.738,218.767,397.738z"
       id="path31" /><path
       style="fill:#2b1100"
       d="M332.606,397.738h-39.445c-6.701,0-12.133-5.432-12.133-12.133s5.432-12.133,12.133-12.133h39.445   c6.701,0,12.133,5.432,12.133,12.133S339.307,397.738,332.606,397.738z"
       id="path33" /></g><g
     id="g37"
     transform="translate(0,-40)"><path
       style="fill:#181818"
       d="m 111.73,103.385 c 0,12.881 -10.443,23.324 -23.324,23.324 -12.881,0 -23.324,-10.443 -23.324,-23.324 l 0,-35.85 c 0,-12.881 10.443,-23.324 23.324,-23.324 12.881,0 23.324,10.443 23.324,23.324 l 0,35.85 z"
       id="path39"
       inkscape:connector-curvature="0" /><path
       style="fill:#181818"
       d="m 223.459,103.385 c 0,12.881 -10.443,23.324 -23.324,23.324 -12.881,0 -23.324,-10.443 -23.324,-23.324 l 0,-35.85 c 0,-12.881 10.443,-23.324 23.324,-23.324 12.881,0 23.324,10.443 23.324,23.324 l 0,35.85 z"
       id="path41"
       inkscape:connector-curvature="0" /><path
       style="fill:#181818"
       d="m 446.918,103.385 c 0,12.881 -10.443,23.324 -23.324,23.324 -12.881,0 -23.324,-10.443 -23.324,-23.324 l 0,-35.85 c 0,-12.881 10.443,-23.324 23.324,-23.324 12.881,0 23.324,10.443 23.324,23.324 l 0,35.85 z"
       id="path43"
       inkscape:connector-curvature="0" /><path
       style="fill:#181818"
       d="m 335.189,103.385 c 0,12.881 -10.443,23.324 -23.324,23.324 -12.881,0 -23.324,-10.443 -23.324,-23.324 l 0,-35.85 c 0,-12.881 10.443,-23.324 23.324,-23.324 12.881,0 23.324,10.443 23.324,23.324 l 0,35.85 z"
       id="path45"
       inkscape:connector-curvature="0" /></g><g
     id="g47" /><g
     id="g49" /><g
     id="g51" /><g
     id="g53" /><g
     id="g55" /><g
     id="g57" /><g
     id="g59" /><g
     id="g61" /><g
     id="g63" /><g
     id="g65" /><g
     id="g67" /><g
     id="g69" /><g
     id="g71" /><g
     id="g73" /><g
     id="g75" /><path
     inkscape:connector-curvature="0"
     d="m 347.36065,514.50848 22.33211,-141.76846 -53.60303,0 22.3321,-165.0112 131.77683,0 -44.6642,113.88219 75.93513,0 -154.10894,192.89747 z"
     id="path3"
     style="fill:#ff6600" /></svg>