<?xml version="1.0" encoding="UTF-8" standalone="no"?>
<!-- Generator: Adobe Illustrator 19.0.0, SVG Export Plug-In . SVG Version: 6.00 Build 0)  -->

<svg
   xmlns:dc="http://purl.org/dc/elements/1.1/"
   xmlns:cc="http://creativecommons.org/ns#"
   xmlns:rdf="http://www.w3.org/1999/02/22-rdf-syntax-ns#"
   xmlns:svg="http://www.w3.org/2000/svg"
   xmlns="http://www.w3.org/2000/svg"
   xmlns:sodipodi="http://sodipodi.sourceforge.net/DTD/sodipodi-0.dtd"
   xmlns:inkscape="http://www.inkscape.org/namespaces/inkscape"
   version="1.1"
   id="Layer_1"
   x="0px"
   y="0px"
   viewBox="0 0 491.52 491.52"
   style="enable-background:new 0 0 491.52 491.52;"
   xml:space="preserve"
   inkscape:version="0.91 r13725"
   sodipodi:docname="save_icon.svg"
   inkscape:export-filename="C:\Data\save-24.png"
   inkscape:export-xdpi="4.3945312"
   inkscape:export-ydpi="4.3945312"><metadata
     id="metadata53"><rdf:RDF><cc:Work
         rdf:about=""><dc:format>image/svg+xml</dc:format><dc:type
           rdf:resource="http://purl.org/dc/dcmitype/StillImage" /></cc:Work></rdf:RDF></metadata><defs
     id="defs51" /><sodipodi:namedview
     pagecolor="#ffffff"
     bordercolor="#666666"
     borderopacity="1"
     objecttolerance="10"
     gridtolerance="10"
     guidetolerance="10"
     inkscape:pageopacity="0"
     inkscape:pageshadow="2"
     inkscape:window-width="1280"
     inkscape:window-height="666"
     id="namedview49"
     showgrid="false"
     inkscape:zoom="0.48014324"
     inkscape:cx="245.75999"
     inkscape:cy="245.75999"
     inkscape:window-x="-8"
     inkscape:window-y="-8"
     inkscape:window-maximized="1"
     inkscape:current-layer="Layer_1" /><path
     style="fill:#64798A;"
     d="M484.381,82.229l-75.09-75.09C404.72,2.568,398.522,0,392.058,0H24.372C10.912,0,0,10.911,0,24.372  v442.775c0,13.462,10.912,24.373,24.372,24.373h442.775c13.46,0,24.372-10.911,24.372-24.373V99.462  C491.52,92.997,488.952,86.799,484.381,82.229z"
     id="path3" /><path
     style="fill:#FFFFFF;"
     d="M406.232,220.728H85.289c-11.651,0-21.096,9.445-21.096,21.096v168.495  c0,11.651,9.445,21.096,21.096,21.096h320.943c11.651,0,21.096-9.445,21.096-21.096V241.824  C427.327,230.173,417.882,220.728,406.232,220.728z"
     id="path5" /><g
     id="g7"><rect
       x="101.12"
       y="260.915"
       style="fill:#EBF0F3;"
       width="289.28"
       height="17.874"
       id="rect9" /><rect
       x="101.12"
       y="317.133"
       style="fill:#EBF0F3;"
       width="289.28"
       height="17.874"
       id="rect11" /><rect
       x="101.12"
       y="373.355"
       style="fill:#EBF0F3;"
       width="289.28"
       height="17.874"
       id="rect13" /><path
       style="fill:#EBF0F3;"
       d="M114.721,0v110.368c0,10.347,8.388,18.735,18.736,18.735h224.608   c10.347,0,18.735-8.388,18.735-18.735V0H114.721z"
       id="path15" /></g><rect
     x="310.118"
     y="21.417"
     style="fill:#3A556A;"
     width="29.839"
     height="83.681"
     id="rect17" /><g
     id="g19" /><g
     id="g21" /><g
     id="g23" /><g
     id="g25" /><g
     id="g27" /><g
     id="g29" /><g
     id="g31" /><g
     id="g33" /><g
     id="g35" /><g
     id="g37" /><g
     id="g39" /><g
     id="g41" /><g
     id="g43" /><g
     id="g45" /><g
     id="g47" /></svg>