<?xml version="1.0" encoding="UTF-8" standalone="no"?>
<!-- Generator: Adobe Illustrator 19.0.0, SVG Export Plug-In . SVG Version: 6.00 Build 0)  -->

<svg
   xmlns:dc="http://purl.org/dc/elements/1.1/"
   xmlns:cc="http://creativecommons.org/ns#"
   xmlns:rdf="http://www.w3.org/1999/02/22-rdf-syntax-ns#"
   xmlns:svg="http://www.w3.org/2000/svg"
   xmlns="http://www.w3.org/2000/svg"
   xmlns:sodipodi="http://sodipodi.sourceforge.net/DTD/sodipodi-0.dtd"
   xmlns:inkscape="http://www.inkscape.org/namespaces/inkscape"
   version="1.1"
   id="Layer_1"
   x="0px"
   y="0px"
   viewBox="0 0 512 512"
   style="enable-background:new 0 0 512 512;"
   xml:space="preserve"
   inkscape:version="0.91 r13725"
   sodipodi:docname="settings.svg"
   inkscape:export-filename="C:\Data\settings-24.png"
   inkscape:export-xdpi="4.2199998"
   inkscape:export-ydpi="4.2199998"><metadata
     id="metadata45"><rdf:RDF><cc:Work
         rdf:about=""><dc:format>image/svg+xml</dc:format><dc:type
           rdf:resource="http://purl.org/dc/dcmitype/StillImage" /></cc:Work></rdf:RDF></metadata><defs
     id="defs43" /><sodipodi:namedview
     pagecolor="#ffffff"
     bordercolor="#666666"
     borderopacity="1"
     objecttolerance="10"
     gridtolerance="10"
     guidetolerance="10"
     inkscape:pageopacity="0"
     inkscape:pageshadow="2"
     inkscape:window-width="1280"
     inkscape:window-height="666"
     id="namedview41"
     showgrid="false"
     inkscape:zoom="0.4609375"
     inkscape:cx="256"
     inkscape:cy="256"
     inkscape:window-x="-8"
     inkscape:window-y="-8"
     inkscape:window-maximized="1"
     inkscape:current-layer="Layer_1" /><path
     style="fill:#e6563a"
     d="m 492.37418,492.381 c 26.191,-26.202 26.153,-68.535 -0.032,-94.574 L 314.68918,220.16 c -3.842,-3.837 -9.318,-5.579 -14.674,-4.654 -5.356,0.931 -9.927,4.403 -12.257,9.318 -6.51,13.726 -15.261,26.142 -26.028,36.913 -10.754,10.754 -23.175,19.513 -36.913,26.028 -4.909,2.33 -8.382,6.901 -9.318,12.257 -0.925,5.362 0.816,10.831 4.659,14.674 l 177.675,177.68 c 25.917,26.086 68.313,26.235 94.541,0.005 z"
     id="path3"
     inkscape:connector-curvature="0" /><path
     style="fill:#d9472b"
     d="m 397.83318,492.376 -177.675,-177.68 c -3.842,-3.842 -5.585,-9.312 -4.659,-14.674 0.936,-5.356 4.409,-9.927 9.318,-12.257 13.737,-6.515 26.158,-15.272 36.913,-26.028 l 230.644,230.644 c -26.228,26.229 -68.624,26.081 -94.541,-0.005 z"
     id="path5"
     inkscape:connector-curvature="0" /><path
     style="fill:#c9d2d9"
     d="m 285.37418,285.381 c 64.649,-64.623 65.559,-170.882 0,-236.434 -49.987,-49.992 -126.414,-63.142 -190.236001,-32.7 -4.909,2.341 -8.36,6.912 -9.285,12.263 -0.914,5.35 0.816,10.815 4.659,14.653 l 88.500001,88.5 -47.352,47.357 -88.500001,-88.495 c -3.832,-3.832 -9.253,-5.557 -14.652,-4.659 -5.356,0.92 -9.916,4.382 -12.257,9.28 -30.446,63.794 -17.3080002,140.25 32.689,190.236 65.310001,65.321 171.572001,64.888 236.434001,-0.001 z"
     id="path7"
     inkscape:connector-curvature="0" /><path
     style="fill:#b7c4cc"
     d="m 48.940179,285.381 c -49.9980002,-49.987 -63.137,-126.442 -32.689,-190.236 2.341,-4.899 6.901,-8.36 12.257,-9.28 5.4,-0.898 10.82,0.827 14.652,4.659 l 88.500001,88.495 23.675,-23.677 130.039,130.039 c -64.861,64.889 -171.124,65.322 -236.434001,0 z"
     id="path9"
     inkscape:connector-curvature="0" /><g
     id="g11" /><g
     id="g13" /><g
     id="g15" /><g
     id="g17" /><g
     id="g19" /><g
     id="g21" /><g
     id="g23" /><g
     id="g25" /><g
     id="g27" /><g
     id="g29" /><g
     id="g31" /><g
     id="g33" /><g
     id="g35" /><g
     id="g37" /><g
     id="g39" /></svg>