<?xml version="1.0" encoding="iso-8859-1"?>
<!-- Generator: Adobe Illustrator 18.0.0, SVG Export Plug-In . SVG Version: 6.00 Build 0)  -->
<!DOCTYPE svg PUBLIC "-//W3C//DTD SVG 1.1//EN" "http://www.w3.org/Graphics/SVG/1.1/DTD/svg11.dtd">
<svg version="1.1" id="Capa_1" xmlns="http://www.w3.org/2000/svg" xmlns:xlink="http://www.w3.org/1999/xlink" x="0px" y="0px"
	 viewBox="0 0 56 56" style="enable-background:new 0 0 56 56;" xml:space="preserve">
<g>
	<g>
		<path style="fill:#3ABCA7;" d="M43.636,52H8.364C3.745,52,0,48.255,0,43.636V8.364C0,3.745,3.745,0,8.364,0h35.272
			C48.255,0,52,3.745,52,8.364v35.272C52,48.255,48.255,52,43.636,52z"/>
		<path style="fill:#FFFFFF;" d="M44,14H26c-0.552,0-1-0.447-1-1s0.448-1,1-1h18c0.552,0,1,0.447,1,1S44.552,14,44,14z"/>
		<path style="fill:#FFFFFF;" d="M44,28H26c-0.552,0-1-0.447-1-1s0.448-1,1-1h18c0.552,0,1,0.447,1,1S44.552,28,44,28z"/>
		<path style="fill:#FFFFFF;" d="M44,42H26c-0.552,0-1-0.447-1-1s0.448-1,1-1h18c0.552,0,1,0.447,1,1S44.552,42,44,42z"/>
		<path style="fill:#FFFFFF;" d="M12.071,17c-0.209,0-0.42-0.065-0.6-0.2L6.9,13.371c-0.442-0.331-0.531-0.958-0.2-1.399
			s0.958-0.531,1.4-0.2l3.822,2.866l6.248-7.288c0.36-0.42,0.992-0.468,1.41-0.108c0.419,0.359,0.468,0.99,0.108,1.409l-6.857,8
			C12.633,16.881,12.354,17,12.071,17z"/>
		<path style="fill:#FFFFFF;" d="M12.071,31c-0.209,0-0.42-0.065-0.6-0.2L6.9,27.371c-0.442-0.331-0.531-0.958-0.2-1.399
			s0.958-0.531,1.4-0.2l3.822,2.866l6.248-7.288c0.36-0.42,0.992-0.468,1.41-0.108c0.419,0.359,0.468,0.99,0.108,1.409l-6.857,8
			C12.633,30.881,12.354,31,12.071,31z"/>
		<path style="fill:#FFFFFF;" d="M12.071,45.999c-0.209,0-0.42-0.065-0.6-0.2L6.9,42.37c-0.442-0.331-0.531-0.958-0.2-1.399
			s0.958-0.531,1.4-0.2l3.822,2.866l6.248-7.287c0.36-0.421,0.992-0.469,1.41-0.108c0.419,0.359,0.468,0.99,0.108,1.409
			l-6.857,7.999C12.633,45.88,12.354,45.999,12.071,45.999z"/>
	</g>
	<g>
		<path style="fill:#FFFFFF;" d="M54.805,46.679l-0.107,0.163c-7.121,10.876-18.773,10.876-25.893,0l0,0l0.107-0.163
			C36.033,35.803,47.685,35.803,54.805,46.679L54.805,46.679z"/>
		<circle style="fill:#556080;" cx="41.569" cy="44.397" r="5.909"/>
		<path style="fill:#B1D3EF;" d="M41.752,56c-5.254,0-10.148-3.058-13.783-8.609l-0.358-0.547l0.465-0.711
			c3.635-5.552,8.53-8.609,13.784-8.609c5.253,0,10.148,3.057,13.783,8.609L56,46.679l-0.465,0.711C51.9,52.942,47.005,56,41.752,56
			z M30.008,46.839C33.214,51.463,37.365,54,41.752,54c4.436,0,8.63-2.594,11.85-7.317c-3.206-4.624-7.356-7.161-11.743-7.161
			C37.422,39.522,33.229,42.116,30.008,46.839z"/>
	</g>
</g>
<g>
</g>
<g>
</g>
<g>
</g>
<g>
</g>
<g>
</g>
<g>
</g>
<g>
</g>
<g>
</g>
<g>
</g>
<g>
</g>
<g>
</g>
<g>
</g>
<g>
</g>
<g>
</g>
<g>
</g>
</svg>
