<?xml version="1.0" encoding="UTF-8" standalone="no"?>
<!-- Generator: Adobe Illustrator 18.0.0, SVG Export Plug-In . SVG Version: 6.00 Build 0)  -->

<svg
   xmlns:dc="http://purl.org/dc/elements/1.1/"
   xmlns:cc="http://creativecommons.org/ns#"
   xmlns:rdf="http://www.w3.org/1999/02/22-rdf-syntax-ns#"
   xmlns:svg="http://www.w3.org/2000/svg"
   xmlns="http://www.w3.org/2000/svg"
   xmlns:sodipodi="http://sodipodi.sourceforge.net/DTD/sodipodi-0.dtd"
   xmlns:inkscape="http://www.inkscape.org/namespaces/inkscape"
   version="1.1"
   id="Capa_1"
   x="0px"
   y="0px"
   viewBox="0 0 142.448 142.448"
   style="enable-background:new 0 0 142.448 142.448;"
   xml:space="preserve"
   inkscape:version="0.91 r13725"
   sodipodi:docname="tray.svg"
   inkscape:export-filename="C:\Data\Projects\TimeCult\TimeCult\main\resources\net\sf\timecult\images\icons\tray-24.png"
   inkscape:export-xdpi="15.163428"
   inkscape:export-ydpi="15.163428"><metadata
     id="metadata43"><rdf:RDF><cc:Work
         rdf:about=""><dc:format>image/svg+xml</dc:format><dc:type
           rdf:resource="http://purl.org/dc/dcmitype/StillImage" /></cc:Work></rdf:RDF></metadata><defs
     id="defs41" /><sodipodi:namedview
     pagecolor="#ffffff"
     bordercolor="#666666"
     borderopacity="1"
     objecttolerance="10"
     gridtolerance="10"
     guidetolerance="10"
     inkscape:pageopacity="0"
     inkscape:pageshadow="2"
     inkscape:window-width="1280"
     inkscape:window-height="666"
     id="namedview39"
     showgrid="false"
     inkscape:zoom="1.6567449"
     inkscape:cx="71.223999"
     inkscape:cy="71.223999"
     inkscape:window-x="-8"
     inkscape:window-y="-8"
     inkscape:window-maximized="1"
     inkscape:current-layer="Capa_1" /><g
     id="g3"
     transform="matrix(0,1,-1,0,142.44831,-6.8279561e-4)"
     style="fill:#326496;fill-opacity:1"><path
       style="fill:#326496;fill-opacity:1"
       d="M 142.411,68.9 C 141.216,31.48 110.968,1.233 73.549,0.038 53.188,-0.608 34.139,7.142 20.061,21.677 6.527,35.65 -0.584,54.071 0.038,73.549 c 1.194,37.419 31.442,67.667 68.861,68.861 0.779,0.025 1.551,0.037 2.325,0.037 19.454,0 37.624,-7.698 51.163,-21.676 13.534,-13.972 20.646,-32.394 20.024,-51.871 z m -30.798,41.436 c -10.688,11.035 -25.032,17.112 -40.389,17.112 -0.614,0 -1.228,-0.01 -1.847,-0.029 C 39.845,126.476 15.973,102.604 15.029,73.071 14.538,57.689 20.151,43.143 30.835,32.113 41.523,21.078 55.867,15.001 71.224,15.001 c 0.614,0 1.228,0.01 1.847,0.029 29.532,0.943 53.404,24.815 54.348,54.348 0.491,15.382 -5.123,29.928 -15.806,40.958 z"
       id="path5"
       inkscape:connector-curvature="0" /><path
       style="fill:#326496;fill-opacity:1"
       d="M 94.585,67.086 63.001,44.44 c -3.369,-2.416 -8.059,-0.008 -8.059,4.138 l 0,45.293 c 0,4.146 4.69,6.554 8.059,4.138 L 94.584,75.362 c 2.834,-2.031 2.834,-6.244 10e-4,-8.276 z"
       id="path7"
       inkscape:connector-curvature="0" /></g><g
     id="g9" /><g
     id="g11" /><g
     id="g13" /><g
     id="g15" /><g
     id="g17" /><g
     id="g19" /><g
     id="g21" /><g
     id="g23" /><g
     id="g25" /><g
     id="g27" /><g
     id="g29" /><g
     id="g31" /><g
     id="g33" /><g
     id="g35" /><g
     id="g37" /></svg>