<?xml version="1.0" encoding="UTF-8" standalone="no"?>
<!-- Generator: Adobe Illustrator 19.0.0, SVG Export Plug-In . SVG Version: 6.00 Build 0)  -->

<svg
   xmlns:dc="http://purl.org/dc/elements/1.1/"
   xmlns:cc="http://creativecommons.org/ns#"
   xmlns:rdf="http://www.w3.org/1999/02/22-rdf-syntax-ns#"
   xmlns:svg="http://www.w3.org/2000/svg"
   xmlns="http://www.w3.org/2000/svg"
   xmlns:sodipodi="http://sodipodi.sourceforge.net/DTD/sodipodi-0.dtd"
   xmlns:inkscape="http://www.inkscape.org/namespaces/inkscape"
   version="1.1"
   id="Layer_1"
   x="0px"
   y="0px"
   viewBox="0 0 512 512"
   style="enable-background:new 0 0 512 512;"
   xml:space="preserve"
   inkscape:version="0.91 r13725"
   sodipodi:docname="wait.svg"
   inkscape:export-filename="C:\Data\wait-16.png"
   inkscape:export-xdpi="2.8099999"
   inkscape:export-ydpi="2.8099999"><metadata
     id="metadata69"><rdf:RDF><cc:Work
         rdf:about=""><dc:format>image/svg+xml</dc:format><dc:type
           rdf:resource="http://purl.org/dc/dcmitype/StillImage" /></cc:Work></rdf:RDF></metadata><defs
     id="defs67" /><sodipodi:namedview
     pagecolor="#ffffff"
     bordercolor="#666666"
     borderopacity="1"
     objecttolerance="10"
     gridtolerance="10"
     guidetolerance="10"
     inkscape:pageopacity="0"
     inkscape:pageshadow="2"
     inkscape:window-width="1280"
     inkscape:window-height="666"
     id="namedview65"
     showgrid="false"
     inkscape:zoom="0.4609375"
     inkscape:cx="256"
     inkscape:cy="256"
     inkscape:window-x="-8"
     inkscape:window-y="-8"
     inkscape:window-maximized="1"
     inkscape:current-layer="Layer_1" /><g
     id="g4197"
     transform="matrix(1,0,0,0.91525424,0,45.559322)"><polygon
       id="polygon3"
       points="218.182,256 104.727,325.818 104.727,453.818 407.273,453.818 407.273,325.818 293.818,256 407.273,186.182 407.273,46.545 104.727,46.545 104.727,186.182 "
       style="fill:#c9e3f7" /><polygon
       id="polygon5"
       points="407.273,453.818 407.273,325.818 293.818,256 407.273,186.182 407.273,46.545 256,46.545 256,453.818 "
       style="fill:#78b9eb" /><g
       id="g7"><polygon
         id="polygon9"
         points="372.364,345.325 372.364,465.455 139.636,465.455 139.636,345.325 256,273.718 "
         style="fill:#ffffff" /><polygon
         id="polygon11"
         points="372.364,166.675 372.364,46.545 139.636,46.545 139.636,166.675 256,238.282 "
         style="fill:#ffffff" /></g><g
       id="g13"><polygon
         id="polygon15"
         points="337.455,364.831 337.455,465.455 174.545,465.455 174.545,364.831 256,314.707 "
         style="fill:#ffda44" /><polygon
         id="polygon17"
         points="337.455,147.169 256,197.293 174.545,147.169 174.545,104.727 337.455,104.727 "
         style="fill:#ffda44" /></g><g
       id="g19"><polygon
         id="polygon21"
         points="256,465.455 337.455,465.455 337.455,364.831 256,314.707 "
         style="fill:#ff9811" /><polygon
         id="polygon23"
         points="256,197.293 337.455,147.169 337.455,104.727 256,104.727 "
         style="fill:#ff9811" /><rect
         id="rect25"
         height="69.818001"
         width="372.36401"
         style="fill:#ff9811"
         x="69.818001"
         y="0" /><rect
         id="rect27"
         height="69.818001"
         width="372.36401"
         style="fill:#ff9811"
         y="442.18201"
         x="69.818001" /></g><g
       id="g29"><rect
         id="rect31"
         height="69.818001"
         width="186.18201"
         style="fill:#ff5023"
         x="256"
         y="0" /><rect
         id="rect33"
         height="69.818001"
         width="186.18201"
         style="fill:#ff5023"
         y="442.18201"
         x="256" /></g><g
       id="g35" /><g
       id="g37" /><g
       id="g39" /><g
       id="g41" /><g
       id="g43" /><g
       id="g45" /><g
       id="g47" /><g
       id="g49" /><g
       id="g51" /><g
       id="g53" /><g
       id="g55" /><g
       id="g57" /><g
       id="g59" /><g
       id="g61" /><g
       id="g63" /></g></svg>