<?xml version="1.0" encoding="UTF-8" standalone="no"?>
<!-- Generator: Adobe Illustrator 19.0.0, SVG Export Plug-In . SVG Version: 6.00 Build 0)  -->

<svg
   xmlns:dc="http://purl.org/dc/elements/1.1/"
   xmlns:cc="http://creativecommons.org/ns#"
   xmlns:rdf="http://www.w3.org/1999/02/22-rdf-syntax-ns#"
   xmlns:svg="http://www.w3.org/2000/svg"
   xmlns="http://www.w3.org/2000/svg"
   xmlns:sodipodi="http://sodipodi.sourceforge.net/DTD/sodipodi-0.dtd"
   xmlns:inkscape="http://www.inkscape.org/namespaces/inkscape"
   version="1.1"
   id="Layer_1"
   x="0px"
   y="0px"
   viewBox="0 0 512 512"
   style="enable-background:new 0 0 512 512;"
   xml:space="preserve"
   inkscape:version="0.91 r13725"
   sodipodi:docname="wiki.svg"
   inkscape:export-filename="C:\Data\wiki-24.png"
   inkscape:export-xdpi="4.2199998"
   inkscape:export-ydpi="4.2199998"><metadata
     id="metadata39"><rdf:RDF><cc:Work
         rdf:about=""><dc:format>image/svg+xml</dc:format><dc:type
           rdf:resource="http://purl.org/dc/dcmitype/StillImage" /></cc:Work></rdf:RDF></metadata><defs
     id="defs37" /><sodipodi:namedview
     pagecolor="#ffffff"
     bordercolor="#666666"
     borderopacity="1"
     objecttolerance="10"
     gridtolerance="10"
     guidetolerance="10"
     inkscape:pageopacity="0"
     inkscape:pageshadow="2"
     inkscape:window-width="1280"
     inkscape:window-height="666"
     id="namedview35"
     showgrid="false"
     inkscape:zoom="0.4609375"
     inkscape:cx="256"
     inkscape:cy="256"
     inkscape:window-x="-8"
     inkscape:window-y="-8"
     inkscape:window-maximized="1"
     inkscape:current-layer="Layer_1" /><path
     style="fill:#57575C;"
     d="M499.016,74.436H391.691c-7.141,0-12.984,5.843-12.984,12.984v16.307  c0,7.141,5.843,12.984,12.984,12.984h27.204c0.073,0.067-82.25,215.646-82.25,215.646l-44.351-99.742  c0,0,58.236-115.591,58.445-115.906h12.278c7.141,0,12.984-5.843,12.984-12.984V87.421c0-7.141-5.843-12.984-12.984-12.984h-79.733  c-7.141,0-12.984,5.843-12.984,12.984v16.307c0,7.141,5.843,12.984,12.984,12.984H294.4c-0.487,1.591-26.869,60.124-26.869,60.124  s-25.048-56.115-26.649-60.124h2.788c7.143,0,12.984-5.843,12.984-12.984V87.421c0-7.141-5.841-12.984-12.984-12.984h-84.6  c-7.141,0-12.984,5.843-12.984,12.984v16.307c0,7.141,5.843,12.984,12.984,12.984h11.329c2.207,3.292,58.122,125.827,62.394,136.184  l-36.44,79.847c-20.919-48.777-71.073-166.367-88.067-211.911c-0.62-1.621-1.071-2.969-1.422-4.119h23.514  c7.141,0,12.984-5.843,12.984-12.984V87.421c0-7.141-5.843-12.984-12.984-12.984H12.984C5.843,74.436,0,80.279,0,87.421v16.307  c0,7.141,5.843,12.984,12.984,12.984h20.442c1.125,1.268,46.688,112.117,68.804,163.965c20.434,47.899,41.561,97.427,55.237,132.884  c0.026,0.07,0.054,0.138,0.081,0.206c2.396,5.885,9.681,23.797,25.608,23.797c13.666,0,22.221-13.343,27.468-23.378  c0.047-0.091,0.097-0.187,0.143-0.281c11.003-22.443,30.878-66.71,46.477-101.865c20.496,49.389,34.845,83.354,42.715,101.115  c2.602,5.916,10.517,23.92,26.337,23.922h0.003c15.378,0,23.62-17.272,26.327-22.946c0.099-0.208,0.19-0.417,0.279-0.63  c27.731-67.745,109.146-272.541,109.965-274.602c0.062-0.157,0.122-0.315,0.177-0.476c2.827-8.079,6.586-14.133,11.439-18.464  c1.446-1.277,3.266-2.352,5.4-3.249h19.129c7.141,0,12.984-5.843,12.984-12.984V87.421C512,80.279,506.157,74.436,499.016,74.436z"
     id="path3" /><g
     id="g5" /><g
     id="g7" /><g
     id="g9" /><g
     id="g11" /><g
     id="g13" /><g
     id="g15" /><g
     id="g17" /><g
     id="g19" /><g
     id="g21" /><g
     id="g23" /><g
     id="g25" /><g
     id="g27" /><g
     id="g29" /><g
     id="g31" /><g
     id="g33" /></svg>